<?xml version="1.0" encoding="utf-8" ?>
<svg baseProfile="full" height="800" version="1.1" width="800" xmlns="http://www.w3.org/2000/svg" xmlns:ev="http://www.w3.org/2001/xml-events" xmlns:xlink="http://www.w3.org/1999/xlink"><defs /><path d="M 500.0,400.0 A 100,100 0 0,1 493.9692620785909,434.2020143325669 L 400.0,400.0 A 0,0 0 0,0 400.0,400.0 Z" fill="#FFE066" stroke="black" stroke-width="0.5"><title>Excitación</title></path><path d="M 493.9692620785909,434.2020143325669 A 100,100 0 0,1 476.6044443118978,464.27876096865396 L 400.0,400.0 A 0,0 0 0,0 400.0,400.0 Z" fill="#FFE066" stroke="black" stroke-width="0.5"><title>Energía</title></path><path d="M 600.0,400.0 A 200,200 0 0,1 553.2088886237956,528.5575219373079 L 476.6044443118978,464.27876096865396 A 100,100 0 0,0 500.0,400.0 Z" fill="#FFE066" stroke="black" stroke-width="0.5"><title>Entusiasmo</title></path><path d="M 476.6044443118978,464.27876096865396 A 100,100 0 0,1 450.0,486.60254037844385 L 400.0,400.0 A 0,0 0 0,0 400.0,400.0 Z" fill="#FFD39B" stroke="black" stroke-width="0.5"><title>Gozo</title></path><path d="M 450.0,486.60254037844385 A 100,100 0 0,1 417.364817766693,498.4807753012208 L 400.0,400.0 A 0,0 0 0,0 400.0,400.0 Z" fill="#FFD39B" stroke="black" stroke-width="0.5"><title>Comodidad</title></path><path d="M 553.2088886237956,528.5575219373079 A 200,200 0 0,1 434.7296355333861,596.9615506024415 L 417.364817766693,498.4807753012208 A 100,100 0 0,0 476.6044443118978,464.27876096865396 Z" fill="#FFD39B" stroke="black" stroke-width="0.5"><title>Placer</title></path><path d="M 417.364817766693,498.4807753012208 A 100,100 0 0,1 382.635182233307,498.4807753012208 L 400.0,400.0 A 0,0 0 0,0 400.0,400.0 Z" fill="#FFFACD" stroke="black" stroke-width="0.5"><title>Reconocimiento</title></path><path d="M 382.635182233307,498.4807753012208 A 100,100 0 0,1 350.0,486.6025403784439 L 400.0,400.0 A 0,0 0 0,0 400.0,400.0 Z" fill="#FFFACD" stroke="black" stroke-width="0.5"><title>Aprecio</title></path><path d="M 434.7296355333861,596.9615506024415 A 200,200 0 0,1 300.00000000000006,573.2050807568878 L 350.0,486.6025403784439 A 100,100 0 0,0 417.364817766693,498.4807753012208 Z" fill="#FFFACD" stroke="black" stroke-width="0.5"><title>Gratitud</title></path><path d="M 700.0,400.0 A 300,300 0 0,1 250.00000000000006,659.8076211353316 L 300.00000000000006,573.2050807568878 A 200,200 0 0,0 600.0,400.0 Z" fill="#FFD700" stroke="black" stroke-width="0.5"><title>Alegría</title></path><path d="M 350.0,486.6025403784439 A 100,100 0 0,1 323.3955556881022,464.27876096865396 L 400.0,400.0 A 0,0 0 0,0 400.0,400.0 Z" fill="#87CEFA" stroke="black" stroke-width="0.5"><title>Melancolía</title></path><path d="M 323.3955556881022,464.27876096865396 A 100,100 0 0,1 306.0307379214092,434.2020143325669 L 400.0,400.0 A 0,0 0 0,0 400.0,400.0 Z" fill="#87CEFA" stroke="black" stroke-width="0.5"><title>Desconsuelo</title></path><path d="M 300.00000000000006,573.2050807568878 A 200,200 0 0,1 212.06147584281834,468.40402866513375 L 306.0307379214092,434.2020143325669 A 100,100 0 0,0 350.0,486.6025403784439 Z" fill="#87CEFA" stroke="black" stroke-width="0.5"><title>Pena</title></path><path d="M 306.0307379214092,434.2020143325669 A 100,100 0 0,1 300.0,400.0 L 400.0,400.0 A 0,0 0 0,0 400.0,400.0 Z" fill="#B0C4DE" stroke="black" stroke-width="0.5"><title>Vacío</title></path><path d="M 300.0,400.0 A 100,100 0 0,1 306.0307379214091,365.7979856674331 L 400.0,400.0 A 0,0 0 0,0 400.0,400.0 Z" fill="#B0C4DE" stroke="black" stroke-width="0.5"><title>Aislamiento</title></path><path d="M 212.06147584281834,468.40402866513375 A 200,200 0 0,1 212.0614758428183,331.59597133486625 L 306.0307379214091,365.7979856674331 A 100,100 0 0,0 306.0307379214092,434.2020143325669 Z" fill="#B0C4DE" stroke="black" stroke-width="0.5"><title>Soledad</title></path><path d="M 306.0307379214091,365.7979856674331 A 100,100 0 0,1 323.3955556881022,335.72123903134604 L 400.0,400.0 A 0,0 0 0,0 400.0,400.0 Z" fill="#6495ED" stroke="black" stroke-width="0.5"><title>Remordimiento</title></path><path d="M 323.3955556881022,335.72123903134604 A 100,100 0 0,1 349.99999999999994,313.39745962155615 L 400.0,400.0 A 0,0 0 0,0 400.0,400.0 Z" fill="#6495ED" stroke="black" stroke-width="0.5"><title>Vergüenza</title></path><path d="M 212.0614758428183,331.59597133486625 A 200,200 0 0,1 299.9999999999999,226.79491924311233 L 349.99999999999994,313.39745962155615 A 100,100 0 0,0 306.0307379214091,365.7979856674331 Z" fill="#6495ED" stroke="black" stroke-width="0.5"><title>Culpa</title></path><path d="M 250.00000000000006,659.8076211353316 A 300,300 0 0,1 249.99999999999986,140.1923788646685 L 299.9999999999999,226.79491924311233 A 200,200 0 0,0 300.00000000000006,573.2050807568878 Z" fill="#1E90FF" stroke="black" stroke-width="0.5"><title>Tristeza</title></path><path d="M 349.99999999999994,313.39745962155615 A 100,100 0 0,1 382.635182233307,301.5192246987792 L 400.0,400.0 A 0,0 0 0,0 400.0,400.0 Z" fill="#FFA500" stroke="black" stroke-width="0.5"><title>Ansiedad</title></path><path d="M 382.635182233307,301.5192246987792 A 100,100 0 0,1 417.364817766693,301.51922469877917 L 400.0,400.0 A 0,0 0 0,0 400.0,400.0 Z" fill="#FFA500" stroke="black" stroke-width="0.5"><title>Incertidumbre</title></path><path d="M 299.9999999999999,226.79491924311233 A 200,200 0 0,1 434.729635533386,203.03844939755837 L 417.364817766693,301.51922469877917 A 100,100 0 0,0 349.99999999999994,313.39745962155615 Z" fill="#FFA500" stroke="black" stroke-width="0.5"><title>Inseguridad</title></path><path d="M 417.364817766693,301.51922469877917 A 100,100 0 0,1 450.0,313.39745962155615 L 400.0,400.0 A 0,0 0 0,0 400.0,400.0 Z" fill="#FFB347" stroke="black" stroke-width="0.5"><title>Pánico</title></path><path d="M 450.0,313.39745962155615 A 100,100 0 0,1 476.6044443118978,335.72123903134604 L 400.0,400.0 A 0,0 0 0,0 400.0,400.0 Z" fill="#FFB347" stroke="black" stroke-width="0.5"><title>Parálisis</title></path><path d="M 434.729635533386,203.03844939755837 A 200,200 0 0,1 553.2088886237956,271.4424780626921 L 476.6044443118978,335.72123903134604 A 100,100 0 0,0 417.364817766693,301.51922469877917 Z" fill="#FFB347" stroke="black" stroke-width="0.5"><title>Terror</title></path><path d="M 476.6044443118978,335.72123903134604 A 100,100 0 0,1 493.9692620785909,365.7979856674331 L 400.0,400.0 A 0,0 0 0,0 400.0,400.0 Z" fill="#FFD580" stroke="black" stroke-width="0.5"><title>Tensión</title></path><path d="M 493.9692620785909,365.7979856674331 A 100,100 0 0,1 500.0,400.0 L 400.0,400.0 A 0,0 0 0,0 400.0,400.0 Z" fill="#FFD580" stroke="black" stroke-width="0.5"><title>Alerta</title></path><path d="M 553.2088886237956,271.4424780626921 A 200,200 0 0,1 600.0,399.99999999999994 L 500.0,400.0 A 100,100 0 0,0 476.6044443118978,335.72123903134604 Z" fill="#FFD580" stroke="black" stroke-width="0.5"><title>Preocupación</title></path><path d="M 249.99999999999986,140.1923788646685 A 300,300 0 0,1 700.0,399.99999999999994 L 600.0,399.99999999999994 A 200,200 0 0,0 299.9999999999999,226.79491924311233 Z" fill="#FF8C00" stroke="black" stroke-width="0.5"><title>Miedo</title></path></svg>