<?xml version="1.0" standalone="no"?>
<!DOCTYPE svg PUBLIC "-//W3C//DTD SVG 20010904//EN"
 "http://www.w3.org/TR/2001/REC-SVG-20010904/DTD/svg10.dtd">
<svg version="1.0" xmlns="http://www.w3.org/2000/svg"
 width="1024.000000pt" height="1536.000000pt" viewBox="0 0 1024.000000 1536.000000"
 preserveAspectRatio="xMidYMid meet">

<g transform="translate(0.000000,1536.000000) scale(0.100000,-0.100000)"
fill="#000000" stroke="none">
<path d="M750 13816 l0 -216 40 0 40 0 0 80 0 80 30 0 c26 0 34 -8 76 -80 l46
-80 44 0 c24 0 44 2 44 4 0 3 -23 41 -51 86 -47 77 -49 83 -32 96 10 7 20 14
23 14 16 1 40 64 40 102 0 88 -49 119 -197 126 l-103 5 0 -217z m212 114 c38
-47 -6 -100 -83 -100 l-49 0 0 66 0 66 57 -4 c43 -4 61 -10 75 -28z"/>
<path d="M1170 13868 c0 -185 9 -217 70 -253 50 -29 152 -28 200 2 65 40 74
68 78 251 l4 162 -41 0 -41 0 0 -140 c0 -167 -10 -202 -63 -219 -42 -14 -98 4
-116 37 -7 12 -11 83 -11 171 l0 151 -40 0 -40 0 0 -162z"/>
<path d="M1650 13815 l0 -215 130 0 130 0 0 35 0 35 -95 0 -96 0 3 58 3 57 80
0 80 0 5 30 5 30 -85 5 -85 5 0 50 0 50 93 3 92 3 0 34 0 35 -130 0 -130 0 0
-215z"/>
<path d="M2030 13816 l0 -216 98 0 c114 0 160 11 203 47 84 71 93 229 16 311
-44 48 -94 64 -209 70 l-108 5 0 -217z m191 134 c19 -5 48 -23 64 -40 23 -24
29 -41 33 -87 3 -49 0 -64 -20 -93 -31 -46 -61 -60 -130 -60 l-58 0 0 145 0
145 38 0 c20 0 53 -5 73 -10z"/>
<path d="M2605 13988 c-20 -49 -61 -160 -110 -295 l-34 -93 42 0 c42 0 43 1
60 50 l18 50 82 0 82 0 18 -50 c18 -50 18 -50 62 -50 l45 0 -20 53 c-11 28
-46 124 -78 212 l-60 160 -44 3 c-45 3 -46 3 -63 -40z m94 -141 l30 -87 -66 0
c-48 0 -64 3 -60 13 45 120 62 165 65 163 1 -2 15 -42 31 -89z"/>
<path d="M3150 13814 l0 -216 113 4 c132 4 175 20 221 86 23 32 31 56 34 102
11 157 -87 240 -285 240 l-83 0 0 -216z m229 119 c80 -59 79 -194 -1 -243 -23
-14 -50 -20 -90 -20 l-58 0 0 146 0 147 62 -6 c37 -3 71 -13 87 -24z"/>
<path d="M3630 13815 l0 -215 135 0 135 0 0 35 0 35 -95 0 -95 0 0 60 0 59 85
-2 85 -2 0 33 0 32 -85 0 -85 0 0 55 0 55 95 0 95 0 0 35 0 35 -135 0 -135 0
0 -215z"/>
<path d="M4200 13815 l0 -215 130 0 130 0 0 35 0 35 -90 0 -90 0 -2 163 c0 89
-1 170 0 180 1 13 -6 17 -38 17 l-40 0 0 -215z"/>
<path d="M4647 13883 c-31 -82 -68 -178 -82 -215 l-25 -68 43 0 c43 0 44 0 58
48 l15 47 83 0 83 0 17 -45 c16 -43 19 -45 59 -48 23 -2 42 0 42 5 0 4 -32 94
-71 198 -39 105 -73 198 -76 208 -4 13 -16 17 -48 17 l-42 0 -56 -147z m100
-121 c-32 -2 -61 -1 -63 1 -2 2 11 40 28 86 l31 82 32 -83 32 -83 -60 -3z"/>
<path d="M5093 14015 c-46 -20 -75 -70 -69 -118 6 -53 26 -71 115 -108 92 -38
101 -45 101 -75 0 -60 -97 -69 -144 -13 -25 29 -26 29 -56 14 -36 -19 -37 -24
-8 -60 88 -112 288 -66 288 67 0 47 -31 91 -76 110 -21 9 -60 26 -87 37 -55
23 -67 44 -42 71 27 30 90 27 119 -5 22 -23 27 -24 52 -13 16 7 31 13 33 15 9
6 -33 56 -62 73 -38 24 -117 26 -164 5z"/>
<path d="M5620 13815 l0 -215 135 0 135 0 0 35 0 35 -95 0 -95 0 0 58 0 57 85
-2 85 -2 0 34 0 35 -85 0 -85 0 0 55 0 55 90 0 90 0 0 35 0 35 -130 0 -130 0
0 -215z"/>
<path d="M6010 13815 l0 -215 40 0 40 0 1 143 0 142 54 -106 c44 -87 59 -107
79 -111 32 -6 32 -6 92 117 l49 100 3 -142 3 -143 34 0 35 0 0 215 0 215 -41
0 -40 0 -63 -132 -63 -133 -67 133 -66 132 -45 0 -45 0 0 -215z"/>
<path d="M6685 14012 c-181 -86 -159 -352 33 -408 150 -44 286 58 285 213 -1
76 -34 140 -95 181 -55 36 -162 42 -223 14z m178 -78 c81 -59 74 -204 -12
-249 -63 -32 -148 -9 -188 51 -11 17 -17 46 -17 79 0 60 19 96 67 126 39 25
111 21 150 -7z"/>
<path d="M7215 14016 c-158 -70 -168 -319 -16 -395 58 -30 106 -34 169 -16 58
17 132 77 132 108 0 13 -57 45 -63 36 -2 -2 -11 -17 -21 -32 -35 -56 -120 -73
-177 -34 -62 41 -86 127 -55 200 22 52 50 70 115 75 56 4 60 3 99 -32 40 -37
41 -37 72 -21 24 12 28 19 21 33 -13 25 -51 57 -88 76 -39 20 -145 21 -188 2z"/>
<path d="M7600 13815 l0 -215 40 0 40 0 0 215 0 215 -40 0 -40 0 0 -215z"/>
<path d="M7903 14005 c-75 -38 -107 -89 -111 -180 -3 -57 0 -80 16 -111 57
-111 193 -152 307 -93 122 62 153 232 62 336 -66 75 -179 95 -274 48z m161
-59 c131 -55 101 -261 -41 -273 -96 -8 -158 55 -150 155 7 102 97 157 191 118z"/>
<path d="M8340 13815 l0 -215 40 0 40 0 0 152 0 152 107 -152 c106 -151 107
-152 145 -152 l38 0 0 215 0 215 -40 0 -40 0 0 -151 0 -152 -105 152 -106 151
-39 0 -40 0 0 -215z"/>
<path d="M8840 13815 l0 -215 135 0 135 0 0 35 0 35 -95 0 -95 0 0 58 0 57 85
-2 85 -2 0 34 0 35 -85 0 -85 0 0 55 0 55 93 0 92 0 -1 32 -1 33 -131 3 -132
3 0 -216z"/>
<path d="M9285 14016 c-43 -19 -66 -49 -72 -95 -8 -60 14 -86 111 -131 92 -43
111 -59 101 -90 -16 -49 -98 -48 -139 1 -25 29 -26 29 -56 14 -16 -8 -30 -20
-30 -25 0 -5 14 -25 31 -45 85 -97 262 -55 276 66 5 41 2 50 -25 80 -18 20
-58 45 -102 64 -86 35 -103 54 -76 84 28 31 89 29 115 -4 19 -25 21 -25 56
-11 l37 16 -22 30 c-12 17 -34 37 -50 45 -36 18 -115 19 -155 1z"/>
<path d="M4398 12427 c-72 -11 -97 -35 -29 -29 33 3 39 1 45 -20 5 -19 -2 -30
-36 -60 -51 -45 -44 -62 9 -21 37 28 39 29 56 11 38 -40 104 -2 93 54 -3 17
-6 41 -6 54 0 27 -14 29 -132 11z m116 -41 c8 -41 0 -63 -24 -69 -28 -7 -48
13 -55 55 -7 39 -10 37 61 47 7 0 15 -14 18 -33z"/>
<path d="M5720 12431 c0 -6 18 -14 39 -17 39 -6 39 -6 38 -51 -2 -49 17 -73
59 -73 31 0 46 23 52 79 l4 48 -58 7 c-33 4 -76 9 -96 13 -25 3 -38 2 -38 -6z
m170 -48 c0 -33 -12 -62 -27 -67 -24 -10 -43 13 -43 50 0 32 2 34 35 34 27 0
35 -4 35 -17z"/>
<path d="M5700 12271 c0 -5 34 -14 75 -20 91 -13 105 -14 105 -2 0 5 -34 14
-75 20 -91 13 -105 14 -105 2z"/>
<path d="M4385 12225 c-15 -14 -25 -36 -25 -53 0 -32 33 -82 46 -70 4 5 0 16
-9 26 -21 23 -22 65 -2 82 22 18 32 5 39 -49 4 -28 10 -53 15 -55 5 -3 20 4
35 15 36 28 36 80 0 108 -35 28 -69 26 -99 -4z m93 -17 c17 -17 15 -53 -3 -68
-19 -16 -21 -14 -29 38 -7 44 6 56 32 30z"/>
<path d="M5710 12190 c-35 -35 -24 -85 24 -105 32 -14 73 -5 88 18 9 15 10 59
2 81 -11 29 -23 16 -17 -19 7 -42 -9 -65 -46 -65 -51 0 -68 44 -30 79 12 11
16 21 10 25 -6 4 -19 -2 -31 -14z"/>
<path d="M4405 12055 c-14 -13 -25 -32 -25 -42 0 -26 28 -63 47 -63 14 0 13 4
-5 23 -29 30 -28 53 3 73 53 35 111 -20 70 -66 -10 -11 -15 -23 -12 -27 12
-11 47 29 47 54 0 32 -43 73 -75 73 -14 0 -37 -11 -50 -25z"/>
<path d="M3063 12015 c-51 -24 -93 -46 -93 -50 0 -15 51 -105 60 -105 14 0 13
5 -10 50 -11 22 -20 42 -20 44 0 6 55 36 64 36 3 0 15 -18 26 -40 12 -23 25
-38 30 -35 6 4 1 22 -10 45 -11 22 -20 41 -20 44 0 2 14 9 30 15 28 9 31 8 46
-22 22 -43 35 -58 44 -52 6 4 -46 116 -53 115 -1 -1 -44 -21 -94 -45z"/>
<path d="M5685 12025 c-63 -62 6 -161 90 -129 18 7 45 55 45 79 0 26 -55 75
-85 75 -14 0 -37 -11 -50 -25z m97 -26 c40 -53 -21 -112 -77 -75 -31 20 -33
58 -4 87 26 26 57 21 81 -12z"/>
<path d="M7085 12016 c-10 -14 -15 -33 -11 -41 3 -8 1 -15 -4 -15 -21 0 -9
-18 18 -28 15 -6 44 -17 65 -26 53 -23 46 -1 -8 25 -47 22 -64 51 -45 74 16
20 29 19 84 -5 25 -10 48 -15 51 -10 7 11 -55 39 -102 47 -26 4 -34 1 -48 -21z"/>
<path d="M4422 11887 c-31 -33 -29 -80 4 -106 56 -44 124 -17 124 49 0 70 -82
106 -128 57z m90 -14 c38 -34 15 -93 -38 -93 -24 0 -54 29 -54 53 0 48 56 73
92 40z"/>
<path d="M7016 11868 c-38 -60 -10 -128 53 -128 70 0 100 81 47 127 -35 30
-81 30 -100 1z m89 -22 c19 -19 23 -30 16 -47 -11 -32 -33 -43 -65 -35 -38 9
-54 48 -32 81 21 32 50 32 81 1z"/>
<path d="M3113 11847 c-35 -17 -63 -35 -63 -40 0 -5 8 -6 18 -2 102 42 102 42
123 16 24 -29 15 -43 -53 -77 -27 -14 -46 -29 -43 -34 7 -12 80 23 113 53 28
26 28 42 -1 71 -13 13 -21 28 -19 34 5 17 -6 14 -75 -21z"/>
<path d="M5652 11838 c-7 -7 -12 -21 -12 -33 0 -12 5 -26 12 -33 9 -9 8 -12
-5 -12 -9 0 -17 -4 -17 -10 0 -5 10 -10 23 -10 12 0 46 -3 75 -6 36 -5 52 -3
52 5 0 6 -15 11 -32 11 -49 0 -83 21 -83 50 0 24 3 25 63 25 43 0 62 4 62 13
0 16 -121 17 -138 0z"/>
<path d="M6897 11754 c-8 -8 1 -24 14 -24 5 0 9 7 9 15 0 15 -12 20 -23 9z"/>
<path d="M6950 11721 c0 -12 128 -66 137 -58 8 8 11 6 -60 40 -61 29 -77 32
-77 18z"/>
<path d="M4478 11713 c-29 -3 -48 -9 -48 -16 0 -8 14 -11 44 -9 50 4 86 -11
86 -36 0 -25 -20 -42 -49 -42 -37 0 -71 -11 -71 -22 0 -10 96 0 123 14 22 11
22 56 0 80 -9 11 -11 18 -5 18 7 0 12 5 12 10 0 6 -10 9 -22 8 -13 -1 -44 -3
-70 -5z"/>
<path d="M3190 11692 c-27 -13 -36 -24 -38 -48 -3 -34 29 -84 55 -84 12 0 9 7
-11 25 -29 27 -34 66 -11 85 13 10 18 6 35 -31 11 -24 20 -50 20 -56 0 -21 28
-15 44 9 24 34 20 73 -10 97 -32 25 -39 26 -84 3z m85 -33 c7 -20 -2 -59 -13
-59 -9 0 -41 77 -35 83 10 10 43 -6 48 -24z"/>
<path d="M5560 11685 c0 -9 5 -15 11 -13 6 2 11 8 11 13 0 5 -5 11 -11 13 -6
2 -11 -4 -11 -13z"/>
<path d="M5620 11683 c0 -6 21 -13 46 -17 67 -9 104 -7 104 4 0 6 -13 10 -29
10 -15 0 -49 3 -75 6 -28 4 -46 3 -46 -3z"/>
<path d="M6910 11629 c-6 -11 -10 -30 -8 -42 2 -12 -7 -31 -21 -45 -15 -15
-22 -31 -19 -47 4 -17 -1 -26 -20 -34 -20 -9 -23 -17 -20 -41 3 -20 0 -30 -9
-30 -31 0 -9 -17 55 -41 83 -33 105 -25 31 10 -44 21 -55 31 -57 54 -5 39 17
43 76 13 29 -15 53 -22 57 -16 3 5 -17 21 -45 35 -39 20 -50 31 -50 49 0 42
23 50 76 27 50 -23 64 -25 64 -13 0 4 -22 18 -50 29 -41 17 -50 26 -50 46 0
13 7 30 15 37 14 12 41 5 117 -28 5 -2 8 0 8 5 0 13 -87 53 -115 53 -14 0 -29
-8 -35 -21z"/>
<path d="M5614 11585 c-12 -19 -14 -31 -6 -54 8 -22 7 -32 -5 -44 -15 -14 -15
-18 0 -41 22 -32 21 -35 -3 -29 -11 3 -20 0 -20 -6 0 -13 -10 -11 83 -19 51
-5 76 -4 74 3 -2 5 -22 11 -45 13 -30 2 -47 10 -62 29 -32 41 -11 56 62 48 40
-5 58 -3 58 4 0 6 -12 11 -27 12 -69 2 -103 18 -103 49 0 31 26 43 85 38 30
-3 55 -1 55 3 0 10 -39 19 -87 19 -34 0 -46 -5 -59 -25z"/>
<path d="M3261 11514 c-66 -30 -68 -31 -52 -47 9 -9 13 -9 19 0 10 16 80 45
92 38 5 -3 7 -12 3 -20 -3 -10 1 -15 15 -15 11 0 29 -3 39 -7 11 -4 5 6 -14
24 -18 17 -33 36 -33 42 0 15 -7 14 -69 -15z"/>
<path d="M4479 11522 c-33 -27 -30 -78 6 -109 47 -41 115 -9 115 54 0 64 -70
96 -121 55z m88 -14 c23 -30 23 -49 -2 -74 -25 -25 -55 -26 -79 -4 -15 15 -9
63 10 77 23 16 59 17 71 1z"/>
<path d="M3294 11410 c-81 -29 -94 -38 -94 -68 0 -40 26 -72 59 -72 49 0 67
43 36 87 -14 20 -14 23 4 33 16 8 21 6 27 -13 17 -56 66 -75 85 -33 9 18 7 30
-5 55 -19 36 -37 38 -112 11z m102 -24 c7 -29 -1 -46 -21 -46 -18 0 -38 37
-31 56 9 24 45 17 52 -10z m-118 -28 c7 -7 12 -25 12 -40 0 -23 -4 -28 -23
-28 -13 0 -28 5 -35 12 -13 13 -16 50 -5 61 10 11 38 8 51 -5z"/>
<path d="M4505 11345 c-14 -13 -25 -35 -25 -48 0 -27 25 -65 36 -54 4 4 2 13
-4 19 -20 20 -14 56 13 74 47 31 96 -10 70 -59 -19 -37 -3 -43 18 -7 22 36 9
76 -28 90 -39 15 -54 12 -80 -15z"/>
<path d="M6720 11340 c0 -5 5 -10 10 -10 6 0 10 5 10 10 0 6 -4 10 -10 10 -5
0 -10 -4 -10 -10z"/>
<path d="M5586 11318 c-36 -50 -4 -108 58 -108 25 0 40 7 55 26 25 31 26 53 7
80 -19 25 -31 12 -14 -15 24 -39 -22 -82 -69 -65 -33 11 -43 53 -19 74 9 7 16
16 16 21 0 16 -19 9 -34 -13z"/>
<path d="M6770 11322 c0 -7 66 -40 143 -71 5 -2 8 2 5 9 -2 6 -34 25 -72 41
-76 32 -76 32 -76 21z"/>
<path d="M3386 11260 c-44 -15 -82 -32 -84 -38 -5 -15 -5 -15 64 8 33 12 70
18 83 15 18 -5 22 -3 18 9 -8 19 14 21 31 4 9 -9 12 -9 12 0 0 10 -33 35 -42
30 -2 0 -39 -13 -82 -28z"/>
<path d="M1929 11206 l-77 -71 43 -49 c23 -27 45 -45 48 -40 3 5 -10 26 -28
48 l-32 39 31 28 31 28 27 -32 c14 -17 30 -28 34 -24 4 4 -5 21 -21 37 l-29
30 25 26 25 25 33 -41 c29 -37 52 -51 51 -32 -1 4 -20 28 -43 53 l-42 47 -76
-72z"/>
<path d="M8217 11252 c-10 -10 -17 -29 -17 -41 0 -14 -4 -20 -11 -15 -25 15
-2 -14 44 -55 60 -55 75 -45 19 12 -48 49 -50 57 -22 82 19 17 21 17 60 -10
23 -16 43 -32 46 -37 7 -11 24 -10 24 1 0 13 -91 81 -110 81 -9 0 -24 -8 -33
-18z"/>
<path d="M6747 11242 c-25 -27 -22 -78 5 -96 30 -22 81 -20 101 2 18 20 23 82
7 82 -5 0 -10 -13 -10 -29 0 -16 -6 -34 -14 -40 -22 -18 -67 -9 -83 16 -14 20
-13 24 11 48 14 14 26 28 26 30 0 12 -29 3 -43 -13z"/>
<path d="M4676 11211 c-4 -5 -2 -12 3 -15 5 -4 12 -2 15 3 4 5 2 12 -3 15 -5
4 -12 2 -15 -3z"/>
<path d="M4551 11201 c-33 -4 -56 -11 -59 -20 -3 -9 2 -11 14 -8 11 3 47 9 81
12 35 4 60 11 57 16 -3 5 -13 8 -22 7 -9 -1 -41 -4 -71 -7z"/>
<path d="M3372 11174 c-31 -21 -28 -58 7 -95 28 -29 32 -30 66 -19 46 15 69
48 56 82 -10 28 -39 54 -48 44 -4 -3 1 -12 9 -19 24 -19 31 -52 13 -67 -9 -7
-17 -11 -18 -9 -1 2 -12 25 -25 52 -24 52 -28 54 -60 31z m54 -49 c18 -45 18
-45 -11 -45 -28 0 -52 37 -42 64 11 27 37 17 53 -19z"/>
<path d="M5571 11163 c-11 -10 -24 -32 -27 -50 -5 -26 -1 -37 19 -57 51 -51
127 -22 127 48 0 62 -72 97 -119 59z m77 -19 c43 -30 21 -94 -32 -94 -20 0
-56 35 -56 55 0 18 35 55 53 55 7 0 23 -7 35 -16z"/>
<path d="M8077 11156 c-4 -15 -6 -31 -2 -34 10 -10 16 6 13 35 l-3 28 -8 -29z"/>
<path d="M4580 11133 c-96 -10 -104 -25 -14 -27 103 -2 99 -60 -4 -73 -29 -3
-52 -10 -52 -16 0 -6 24 -7 65 -3 57 6 65 4 75 -13 13 -25 13 -27 -6 -45 -8
-9 -32 -16 -52 -17 -42 -1 -80 -13 -66 -21 14 -9 123 9 140 22 20 17 18 43 -7
74 -11 14 -16 26 -10 26 14 0 14 57 1 65 -8 5 -7 11 1 21 12 15 8 15 -71 7z"/>
<path d="M8100 11112 c-37 -37 -38 -61 -4 -96 33 -33 73 -34 102 -3 41 43 19
109 -40 123 -22 5 -33 0 -58 -24z m80 -12 c24 -24 26 -53 4 -74 -27 -28 -62
-19 -82 20 -10 18 -8 27 9 48 25 31 42 33 69 6z"/>
<path d="M2022 11057 c-29 -29 -49 -56 -45 -60 4 -4 26 11 50 35 39 38 45 40
68 30 35 -16 31 -38 -15 -93 -22 -26 -36 -50 -31 -53 5 -4 28 15 50 41 48 56
53 99 12 119 -13 7 -27 17 -30 23 -4 6 -28 -11 -59 -42z"/>
<path d="M6682 11087 c-45 -48 -11 -127 55 -127 27 0 73 41 73 64 0 28 -22 64
-47 75 -36 17 -57 13 -81 -12z m88 -17 c24 -24 25 -38 4 -68 -18 -26 -50 -28
-76 -5 -22 20 -23 51 -1 75 21 24 48 23 73 -2z"/>
<path d="M7976 11063 c-11 -11 -6 -23 9 -23 8 0 15 4 15 9 0 13 -16 22 -24 14z"/>
<path d="M8015 11019 c-4 -6 -5 -11 -4 -13 2 -1 27 -21 56 -44 69 -57 77 -38
8 21 -33 29 -56 43 -60 36z"/>
<path d="M5532 10988 c-15 -15 -16 -54 -2 -63 16 -10 12 -25 -5 -19 -9 4 -15
0 -15 -10 0 -12 10 -16 44 -16 24 0 58 -3 75 -6 18 -4 31 -2 31 3 0 6 -19 13
-42 17 -47 8 -78 30 -78 57 0 23 30 32 85 23 27 -4 45 -2 45 4 0 20 -119 29
-138 10z"/>
<path d="M2131 10934 c-42 -53 -14 -130 44 -122 26 4 27 5 10 12 -51 19 -64
38 -51 73 6 13 14 10 44 -20 21 -20 42 -37 46 -37 15 0 35 34 36 58 1 59 -90
85 -129 36z m97 -6 c15 -15 16 -45 1 -54 -11 -6 -69 42 -69 58 0 13 55 9 68
-4z"/>
<path d="M7950 10940 c-41 -41 -12 -82 44 -62 47 17 58 15 54 -10 -2 -15 -11
-24 -25 -26 -27 -4 -31 -22 -5 -22 27 0 54 34 50 62 -3 24 -12 25 -88 16 -32
-4 -34 23 -2 37 12 5 22 13 22 17 0 15 -30 8 -50 -12z"/>
<path d="M6610 10929 c-7 -11 -9 -32 -5 -46 4 -16 2 -22 -5 -18 -5 3 -15 3
-21 -1 -10 -6 58 -39 121 -59 37 -12 20 11 -25 33 -31 15 -47 30 -51 48 -10
39 11 46 70 23 60 -22 56 -22 56 -9 0 13 -83 50 -110 50 -11 0 -24 -9 -30 -21z"/>
<path d="M7837 10894 c-8 -8 1 -24 14 -24 5 0 9 7 9 15 0 15 -12 20 -23 9z"/>
<path d="M4603 10868 c-40 -6 -73 -14 -73 -19 0 -11 5 -11 114 2 50 6 95 15
101 20 11 11 -45 10 -142 -3z"/>
<path d="M7885 10859 c-4 -6 -5 -11 -4 -13 2 -1 27 -21 56 -44 69 -57 77 -38
8 21 -33 29 -56 43 -60 36z"/>
<path d="M2262 10807 c-59 -60 -59 -88 0 -30 36 35 40 37 69 26 35 -14 37 5 2
22 -11 6 -18 16 -15 23 6 20 -1 14 -56 -41z"/>
<path d="M5515 10815 c-44 -43 -23 -109 40 -121 72 -14 116 80 59 125 -35 28
-69 26 -99 -4z m87 -12 c26 -24 23 -59 -8 -80 -24 -15 -29 -15 -53 -2 -33 19
-38 52 -12 78 25 25 48 27 73 4z"/>
<path d="M4575 10785 c-14 -13 -25 -33 -25 -44 0 -23 45 -79 55 -69 4 3 -3 16
-14 27 -26 26 -27 53 -2 75 21 19 17 27 37 -74 3 -16 8 -30 10 -30 11 0 49 24
56 34 25 37 -18 106 -67 106 -14 0 -37 -11 -50 -25z m89 -11 c20 -20 20 -48 1
-64 -20 -16 -23 -13 -31 38 -7 45 3 54 30 26z"/>
<path d="M6555 10775 c-14 -13 -25 -36 -25 -50 0 -33 42 -75 75 -75 14 0 37
11 50 25 39 38 32 86 -16 110 -39 21 -56 19 -84 -10z m93 -17 c29 -24 0 -88
-40 -88 -22 0 -58 34 -58 55 0 8 9 24 21 36 20 20 48 19 77 -3z"/>
<path d="M7786 10745 c-26 -30 -45 -59 -41 -65 3 -5 -1 -10 -9 -10 -9 0 -16
-3 -16 -7 1 -14 93 -82 103 -76 5 3 -7 19 -27 35 -39 32 -47 67 -20 89 14 11
21 8 51 -24 18 -21 38 -35 43 -32 5 3 -9 24 -31 46 -39 39 -40 42 -23 60 17
19 19 19 59 -21 23 -22 44 -37 48 -33 7 7 -71 93 -84 93 -4 0 -28 -25 -53 -55z"/>
<path d="M2319 10731 c-43 -43 -35 -101 13 -101 21 0 23 -11 6 -28 -30 -30
-86 -2 -75 38 3 13 0 20 -9 20 -34 0 -8 -75 32 -90 32 -13 53 -2 121 63 51 48
67 75 40 64 -8 -3 -14 4 -15 16 -3 52 -69 62 -113 18z m95 -14 c27 -42 -50
-100 -90 -66 -19 16 -18 32 7 63 24 31 65 32 83 3z"/>
<path d="M2520 10672 c0 -5 7 -16 16 -23 14 -12 16 -11 13 5 -4 20 -29 35 -29
18z"/>
<path d="M2560 10659 c0 -13 24 -22 47 -17 13 3 9 7 -14 15 -20 7 -33 8 -33 2z"/>
<path d="M5497 10652 c-22 -25 -21 -75 1 -95 25 -23 78 -21 102 3 23 23 25 39
8 75 -12 28 -34 35 -23 8 16 -39 16 -51 0 -67 -19 -19 -56 -21 -73 -4 -17 17
-15 53 3 68 16 14 20 30 7 30 -5 0 -16 -8 -25 -18z"/>
<path d="M4633 10638 c-75 -12 -88 -34 -14 -24 39 5 53 3 72 -13 36 -30 16
-54 -54 -65 -76 -12 -75 -31 1 -21 87 11 114 45 70 92 -19 20 -19 23 -4 23 9
0 14 5 11 10 -3 6 -9 9 -13 9 -4 -1 -35 -6 -69 -11z"/>
<path d="M2436 10589 c-31 -28 -53 -55 -50 -60 5 -9 124 89 124 103 0 18 -21
5 -74 -43z"/>
<path d="M6492 10617 c-29 -30 -28 -62 3 -92 47 -48 119 -17 113 48 -2 18 -7
30 -13 27 -5 -3 -8 -17 -6 -32 4 -39 -37 -58 -74 -34 -32 21 -32 51 0 72 14 9
22 20 19 25 -8 14 -19 11 -42 -14z"/>
<path d="M7645 10595 c-41 -40 -30 -92 25 -115 28 -11 34 -11 58 7 27 20 43
73 23 73 -6 0 -11 -11 -11 -25 0 -32 -32 -50 -61 -34 -21 11 -20 12 21 48 l44
37 -24 17 c-33 23 -46 21 -75 -8z m50 -1 c14 -6 12 -11 -11 -35 -15 -16 -31
-29 -36 -29 -14 0 -9 33 9 52 19 21 16 20 38 12z"/>
<path d="M2520 10561 c0 -6 11 -11 24 -11 32 0 53 -25 36 -45 -11 -13 -15 -12
-37 5 -56 44 -124 8 -88 -46 10 -15 25 -24 41 -24 22 0 25 -2 14 -15 -7 -8 -8
-15 -3 -15 5 0 31 23 58 50 49 50 49 51 35 78 -11 19 -25 28 -48 30 -18 2 -32
-1 -32 -7z m14 -70 c17 -19 17 -20 -4 -31 -27 -14 -73 11 -64 35 8 21 48 19
68 -4z"/>
<path d="M7491 10509 c-17 -17 -31 -34 -31 -39 0 -13 140 -133 147 -126 4 3
-6 20 -22 36 l-29 30 22 23 c27 28 28 68 4 90 -28 25 -57 21 -91 -14z m77 -1
c18 -18 14 -53 -8 -73 -20 -18 -21 -18 -50 10 l-30 29 22 23 c24 25 48 29 66
11z"/>
<path d="M5472 10494 c-15 -10 -22 -25 -22 -48 0 -78 112 -101 138 -27 11 32
6 71 -10 71 -6 0 -7 -7 -4 -16 9 -24 -4 -63 -26 -75 -11 -6 -21 -9 -23 -7 -1
2 1 26 5 53 10 65 -11 82 -58 49z m42 -46 c-4 -24 -8 -44 -9 -46 -6 -7 -34 11
-39 25 -8 20 19 63 39 63 12 0 14 -9 9 -42z"/>
<path d="M4720 10476 c0 -23 -4 -25 -65 -31 -36 -4 -65 -12 -65 -17 0 -6 26
-7 70 -3 67 7 70 6 70 -14 0 -12 5 -21 10 -21 6 0 10 11 10 25 0 16 6 25 15
25 8 0 15 5 15 10 0 6 -9 10 -20 10 -11 0 -20 6 -20 14 0 8 -4 18 -10 21 -6 3
-10 -5 -10 -19z"/>
<path d="M6416 10468 c-24 -34 -19 -63 15 -92 38 -32 63 -33 94 -1 25 24 35
85 15 85 -5 0 -10 -13 -10 -28 0 -32 -16 -52 -42 -52 -22 0 -22 1 -3 47 23 54
20 63 -19 63 -25 0 -39 -7 -50 -22z m64 -2 c0 -2 -7 -20 -15 -41 -13 -30 -18
-35 -30 -25 -29 24 -11 70 27 70 10 0 18 -2 18 -4z"/>
<path d="M4670 10363 c-45 -17 -64 -68 -40 -113 22 -42 107 -32 128 16 24 51
-35 116 -88 97z m64 -33 c15 -15 9 -63 -10 -77 -37 -27 -84 -4 -84 42 0 43 60
66 94 35z"/>
<path d="M5380 10344 c-8 -8 -16 -35 -20 -59 -8 -51 -21 -43 120 -65 80 -12
80 -12 80 0 0 5 -18 13 -41 16 -36 6 -40 9 -37 33 2 20 12 29 48 42 24 9 46
22 48 28 2 7 -14 5 -45 -7 l-49 -19 -17 24 c-21 27 -68 31 -87 7z m68 -16 c7
-7 12 -27 12 -45 0 -28 -3 -33 -24 -33 -38 0 -56 10 -56 32 0 48 39 75 68 46z"/>
<path d="M6307 10342 c-9 -10 -23 -34 -31 -53 l-15 -36 100 -41 c66 -27 99
-37 99 -28 0 7 -18 20 -40 29 -38 15 -40 17 -29 40 9 19 22 27 55 32 24 3 47
11 50 17 5 7 -7 9 -40 4 -43 -7 -49 -5 -75 23 -33 35 -51 39 -74 13z m71 -53
c4 -42 -10 -53 -52 -38 -29 11 -35 17 -30 34 4 11 13 28 22 38 13 15 18 15 36
3 12 -7 22 -24 24 -37z"/>
<path d="M1094 10171 c-27 -47 -49 -89 -49 -93 0 -12 97 -70 104 -62 3 3 -4
13 -17 23 -67 48 -64 42 -41 79 l21 32 33 -20 c35 -22 45 -24 45 -12 0 5 -16
17 -35 28 -41 22 -40 21 -16 53 l19 24 37 -22 c21 -12 41 -18 46 -14 4 4 -16
22 -45 39 l-52 31 -50 -86z"/>
<path d="M9038 10140 c-24 -25 -29 -36 -23 -58 16 -66 78 -91 129 -51 35 28
36 80 1 114 -33 34 -70 32 -107 -5z m92 -12 c11 -12 20 -31 20 -42 0 -26 -28
-56 -53 -56 -53 0 -77 75 -35 104 30 21 43 20 68 -6z"/>
<path d="M8905 10130 c-3 -6 1 -13 10 -16 19 -8 30 0 20 15 -8 14 -22 14 -30
1z"/>
<path d="M1260 10076 c0 -43 -1 -45 -45 -62 -29 -10 -42 -21 -37 -26 6 -6 21
-4 40 6 17 9 33 16 36 16 2 0 7 -18 11 -40 10 -58 28 -51 20 8 l-6 49 48 18
c30 12 42 21 31 23 -10 2 -31 -3 -48 -12 l-30 -14 0 33 c0 19 -4 37 -10 40 -6
4 -10 -11 -10 -39z"/>
<path d="M8937 10083 c-6 -13 70 -136 77 -124 4 6 -7 35 -25 66 -32 57 -45 71
-52 58z"/>
<path d="M8830 10067 c0 -7 5 -18 11 -24 8 -8 8 -13 0 -17 -17 -11 -13 -29 4
-22 10 3 20 -5 30 -25 27 -51 52 -71 75 -59 27 15 25 32 -2 25 -19 -5 -27 2
-44 34 -19 34 -20 42 -8 52 8 6 11 15 8 21 -3 5 -11 4 -19 -2 -10 -9 -16 -6
-25 9 -12 23 -30 28 -30 8z"/>
<path d="M1375 10018 c-47 -25 -60 -82 -29 -126 12 -18 24 -22 52 -20 19 2 37
9 40 15 2 9 -5 11 -27 7 -39 -8 -61 9 -61 46 0 27 38 70 61 70 12 0 45 -34 51
-51 8 -22 20 -3 13 20 -3 12 -19 28 -35 36 -34 18 -39 18 -65 3z"/>
<path d="M8782 9998 c-7 -7 -12 -18 -12 -26 0 -9 -7 -11 -22 -6 l-22 7 19 -29
c57 -89 68 -104 76 -104 14 0 10 12 -16 55 -29 47 -31 70 -7 84 12 7 14 13 7
20 -8 8 -15 7 -23 -1z"/>
<path d="M1550 9985 c0 -9 5 -15 11 -13 6 2 11 8 11 13 0 5 -5 11 -11 13 -6 2
-11 -4 -11 -13z"/>
<path d="M1492 9889 c-45 -84 -29 -96 19 -14 44 75 44 75 27 75 -7 0 -28 -28
-46 -61z"/>
<path d="M1614 9935 c-4 -10 -13 -13 -25 -10 -11 4 -19 2 -19 -3 0 -6 5 -12
11 -14 7 -2 0 -25 -17 -60 -23 -48 -25 -59 -15 -72 14 -17 41 -22 41 -7 0 5
-7 11 -15 15 -13 5 -12 13 10 56 25 49 38 60 50 40 4 -6 11 -7 17 -4 7 5 5 11
-6 20 -12 8 -16 19 -11 33 7 24 -12 29 -21 6z"/>
<path d="M8620 9890 c-44 -44 -6 -139 56 -140 29 0 74 37 74 61 0 10 -4 19
-10 19 -5 0 -10 -6 -10 -13 0 -18 -32 -47 -52 -47 -8 0 -22 8 -31 18 -16 17
-13 20 39 46 l57 27 -23 25 c-29 30 -72 32 -100 4z m78 -13 c9 -10 1 -18 -33
-35 l-45 -22 0 23 c0 13 5 28 12 35 16 16 53 15 66 -1z"/>
<path d="M1677 9843 c-14 -13 -6 -19 21 -15 18 2 33 -2 42 -13 20 -24 1 -37
-40 -25 -45 13 -68 5 -76 -27 -9 -34 28 -67 63 -58 17 4 21 2 17 -10 -4 -8 -2
-15 2 -15 13 0 64 95 64 118 0 35 -70 69 -93 45z m46 -80 c4 -2 2 -13 -3 -24
-13 -23 -52 -25 -70 -4 -27 33 27 53 73 28z"/>
<path d="M8532 9828 c-7 -7 -12 -18 -12 -26 0 -11 -3 -12 -14 -3 -8 7 -16 8
-18 4 -7 -13 80 -134 87 -122 4 5 -5 28 -19 49 -30 45 -32 62 -11 80 16 13 20
30 7 30 -4 0 -13 -5 -20 -12z"/>
<path d="M8432 9768 c-7 -7 -12 -21 -12 -31 0 -16 -2 -17 -15 -7 -31 26 -25 1
15 -59 22 -33 45 -61 50 -61 15 0 12 8 -15 48 -29 43 -32 77 -7 91 12 7 14 13
7 20 -8 8 -15 7 -23 -1z"/>
<path d="M1795 9745 c-35 -34 -34 -86 2 -115 29 -22 74 -24 81 -2 3 9 -3 11
-22 6 -32 -8 -66 18 -66 51 0 24 38 65 62 65 17 0 48 -31 48 -48 0 -7 5 -12
10 -12 20 0 9 39 -16 59 -35 28 -69 26 -99 -4z"/>
<path d="M1985 9741 c-7 -12 12 -24 25 -16 11 7 4 25 -10 25 -5 0 -11 -4 -15
-9z"/>
<path d="M1935 9640 c-21 -34 -34 -64 -30 -68 4 -4 15 4 24 17 41 62 61 100
52 105 -5 4 -26 -21 -46 -54z"/>
<path d="M2090 9680 c-11 -7 -8 -10 15 -9 17 0 39 4 50 9 16 7 14 9 -15 9 -19
0 -42 -4 -50 -9z"/>
<path d="M8282 9675 c-56 -24 -69 -85 -27 -125 34 -32 83 -30 113 5 27 32 28
51 3 91 -23 38 -48 46 -89 29z m54 -23 c6 -4 16 -17 23 -30 29 -55 -57 -101
-93 -50 -20 29 -20 47 1 70 16 18 49 23 69 10z"/>
<path d="M2010 9622 c-37 -37 -39 -74 -5 -107 41 -42 102 -26 123 32 16 47 -7
85 -60 98 -22 6 -33 1 -58 -23z m78 -8 c42 -29 18 -104 -34 -104 -23 0 -54 33
-54 58 0 14 44 62 57 62 5 0 19 -7 31 -16z"/>
<path d="M8103 9620 c-22 -10 -43 -23 -47 -28 -7 -12 91 -182 105 -182 13 0
11 8 -13 53 -16 28 -19 41 -11 44 29 10 63 46 63 67 0 52 -41 71 -97 46z m71
-33 c9 -15 6 -23 -17 -43 -15 -13 -32 -24 -37 -24 -9 0 -44 59 -38 64 36 29
75 30 92 3z"/>
<path d="M2155 9509 c-21 -33 -34 -63 -30 -67 4 -4 12 1 19 12 44 73 85 93
110 53 9 -13 5 -27 -17 -66 -29 -53 -32 -61 -18 -61 10 0 55 73 65 107 10 30
-27 67 -61 60 -17 -3 -23 -1 -19 9 3 8 1 14 -4 14 -5 0 -25 -27 -45 -61z"/>
<path d="M6264 9096 c-21 -18 -28 -33 -30 -67 -1 -36 -5 -45 -23 -47 -28 -4
-29 -42 -1 -42 19 0 20 -7 20 -100 l0 -100 25 0 25 0 0 100 0 100 30 0 c23 0
30 4 30 20 0 16 -7 20 -30 20 -27 0 -30 3 -30 33 0 39 15 57 47 57 18 0 23 6
23 25 0 21 -5 25 -29 25 -17 0 -42 -10 -57 -24z"/>
<path d="M3719 9077 c-58 -31 -89 -84 -89 -155 0 -66 18 -110 59 -145 109 -91
271 -24 271 113 l0 30 -65 0 c-58 0 -65 -2 -65 -20 0 -17 7 -20 40 -20 46 0
47 -3 20 -47 -25 -42 -54 -56 -103 -50 -61 8 -99 52 -105 120 -8 94 38 149
123 149 51 0 90 -21 100 -52 7 -24 15 -25 40 -6 18 13 18 14 -1 39 -26 36 -91
67 -141 67 -22 0 -59 -10 -84 -23z"/>
<path d="M5380 9084 c-72 -31 -103 -81 -103 -165 0 -67 28 -123 80 -159 68
-47 184 -23 230 47 16 24 16 26 -2 39 -25 19 -32 18 -40 -7 -9 -27 -62 -59
-98 -59 -75 0 -122 64 -115 155 4 50 10 63 37 87 25 23 41 28 80 28 51 0 101
-28 101 -56 0 -18 11 -18 35 0 18 13 18 14 -3 43 -42 59 -129 79 -202 47z"/>
<path d="M556 8910 c-31 -50 -56 -95 -56 -100 0 -19 16 -10 33 19 16 28 19 28
59 19 44 -9 58 -21 58 -50 0 -16 17 -34 25 -27 1 2 -3 40 -11 84 -8 44 -17 95
-20 113 -3 18 -11 32 -18 32 -8 0 -39 -41 -70 -90z m76 8 c2 -29 4 -54 3 -55
-1 -1 -17 0 -36 3 l-36 6 26 49 c14 27 29 49 33 49 3 0 8 -24 10 -52z"/>
<path d="M4051 8964 c-49 -41 -58 -99 -26 -177 18 -43 127 -63 173 -31 12 8
29 28 37 44 30 58 12 140 -37 174 -36 26 -111 21 -147 -10z m128 -40 c28 -35
28 -97 1 -124 -27 -27 -81 -26 -106 1 -29 32 -26 105 5 130 34 27 75 24 100
-7z"/>
<path d="M4388 8982 c-81 -3 -88 -4 -88 -23 0 -19 5 -20 64 -17 42 2 62 -1 57
-7 -4 -5 -33 -41 -64 -79 -33 -40 -57 -80 -57 -93 0 -22 2 -23 95 -23 88 0 95
1 95 20 0 18 -7 20 -71 20 l-71 0 67 80 c46 56 65 88 63 103 -3 21 -7 22 -90
19z"/>
<path d="M4564 8956 c-31 -31 -34 -40 -34 -90 0 -47 4 -61 28 -86 48 -55 134
-57 183 -4 20 22 24 35 24 91 0 60 -2 67 -33 94 -27 24 -41 29 -83 29 -45 0
-55 -4 -85 -34z m136 -26 c14 -14 20 -33 20 -65 0 -56 -25 -85 -74 -85 -44 0
-66 29 -66 87 0 52 26 83 70 83 17 0 39 -9 50 -20z"/>
<path d="M5681 8965 c-36 -31 -55 -84 -45 -127 15 -70 53 -98 130 -98 37 0 51
6 74 28 56 56 49 165 -13 202 -46 29 -108 26 -146 -5z m124 -40 c51 -50 18
-145 -49 -145 -46 0 -71 30 -71 87 0 35 5 49 24 64 32 26 67 24 96 -6z"/>
<path d="M6006 8969 c-21 -17 -26 -18 -26 -5 0 10 -9 16 -25 16 l-25 0 0 -120
0 -120 25 0 c25 0 25 1 25 80 0 73 3 83 25 105 26 27 64 32 83 13 8 -8 12 -46
12 -105 0 -93 0 -93 25 -93 l25 0 0 100 c0 94 -2 103 -25 125 -30 31 -82 33
-119 4z"/>
<path d="M6394 8956 c-30 -30 -34 -40 -34 -86 0 -90 35 -129 116 -130 42 0 56
5 78 27 23 23 25 28 11 35 -10 6 -23 4 -37 -6 -46 -32 -103 -15 -121 37 -6 15
2 17 83 17 89 0 90 0 90 24 0 69 -44 116 -108 116 -37 0 -50 -6 -78 -34z m118
-23 c35 -32 23 -43 -48 -43 -68 0 -70 3 -36 43 19 22 60 22 84 0z"/>
<path d="M6640 8864 l0 -124 25 0 c25 0 25 1 25 83 0 74 3 86 23 105 27 26 59
28 81 6 12 -12 16 -37 16 -105 0 -88 0 -89 25 -89 25 0 25 1 25 84 0 92 -13
141 -40 156 -31 17 -86 11 -114 -11 -25 -19 -26 -19 -26 -2 0 12 -8 19 -20 20
-19 2 -20 -4 -20 -123z"/>
<path d="M9620 8923 c-32 -12 -50 -37 -50 -70 0 -68 42 -102 100 -82 33 12 57
44 41 54 -6 3 -15 -4 -21 -15 -15 -27 -75 -28 -89 -1 -10 17 -5 20 46 33 63
15 72 26 46 56 -20 23 -50 33 -73 25z m57 -39 c4 -11 -46 -34 -73 -34 -17 0
-18 22 -2 38 15 15 70 12 75 -4z"/>
<path d="M731 8847 c-13 -77 -14 -87 -2 -87 5 0 12 19 16 43 10 58 22 77 49
77 44 0 53 -36 29 -122 -3 -11 1 -18 10 -18 11 0 17 18 22 65 8 82 -2 99 -57
92 -21 -3 -38 -1 -38 4 0 5 -4 9 -9 9 -5 0 -14 -28 -20 -63z"/>
<path d="M9248 8905 c-8 -9 50 -219 63 -224 8 -2 10 2 5 15 -6 15 -5 17 5 7
20 -20 58 -15 84 12 66 65 -17 176 -91 120 -28 -21 -31 -19 -38 24 -6 37 -17
56 -28 46z m152 -107 c13 -25 13 -31 0 -55 -30 -53 -100 -31 -100 31 0 56 72
73 100 24z"/>
<path d="M1075 8890 c-4 -6 -3 -16 3 -22 6 -6 12 -6 17 2 4 6 3 16 -3 22 -6 6
-12 6 -17 -2z"/>
<path d="M9495 8878 c-12 -16 -19 -19 -22 -10 -3 6 -8 10 -13 7 -10 -6 30
-145 42 -145 11 0 10 12 -3 65 -12 47 0 85 26 85 8 0 15 5 15 10 0 18 -29 10
-45 -12z"/>
<path d="M912 8858 c-22 -22 -13 -48 23 -69 37 -22 45 -43 20 -53 -20 -7 -42
2 -49 20 -3 9 -10 12 -16 9 -16 -10 6 -42 35 -49 67 -17 90 50 30 86 -20 11
-34 26 -32 32 6 18 37 19 57 1 11 -10 20 -12 24 -6 8 13 -33 41 -59 41 -12 0
-26 -5 -33 -12z"/>
<path d="M1047 8769 c-16 -66 -16 -92 -1 -77 7 8 34 109 34 131 0 40 -17 12
-33 -54z"/>
<path d="M1430 8814 c-6 -14 -10 -33 -10 -43 0 -28 -10 -31 -31 -10 -39 39
-102 9 -115 -57 -11 -59 64 -110 105 -71 11 10 13 9 8 -5 -4 -10 -2 -18 3 -18
5 0 14 19 20 43 7 23 20 73 31 112 22 82 22 75 9 75 -6 0 -15 -12 -20 -26z
m-48 -71 c22 -20 23 -51 2 -81 -17 -24 -53 -29 -72 -10 -17 17 -15 68 5 90 20
22 41 23 65 1z"/>
<path d="M1135 8795 c-35 -34 -35 -98 -1 -120 28 -19 87 -16 94 4 3 10 -3 12
-26 6 -38 -8 -72 9 -72 36 0 17 5 20 23 16 12 -3 39 -9 60 -12 36 -7 37 -6 37
23 0 21 -8 37 -26 51 -35 27 -59 26 -89 -4z m77 -12 c18 -16 25 -43 11 -43
-20 0 -83 22 -83 28 0 13 23 32 39 32 8 0 23 -7 33 -17z"/>
<path d="M9122 8780 c-13 -14 -22 -18 -27 -11 -11 18 -54 12 -67 -8 -9 -15
-15 -17 -25 -9 -21 17 -22 7 -5 -69 11 -46 22 -73 30 -73 8 0 11 7 8 18 -23
78 -14 132 23 132 25 0 38 -17 46 -61 4 -19 10 -42 15 -49 16 -27 20 -3 9 48
-14 58 -3 82 36 82 24 0 38 -25 50 -87 10 -50 28 -41 20 10 -11 69 -26 92 -62
95 -22 2 -37 -3 -51 -18z"/>
<path d="M8716 8728 c7 -29 14 -54 14 -55 0 -2 -11 2 -24 8 -32 15 -77 -7 -90
-44 -16 -44 18 -101 62 -105 21 -2 41 3 51 12 13 12 20 13 29 4 18 -18 16 11
-10 130 -13 63 -26 102 -34 102 -9 0 -9 -11 2 -52z m4 -78 c38 -38 19 -100
-31 -100 -24 0 -33 6 -43 32 -15 35 -12 56 12 76 22 17 39 15 62 -8z"/>
<path d="M1769 8710 c-11 -44 -15 -48 -28 -36 -28 23 -51 26 -80 11 -33 -16
-41 -33 -41 -80 0 -52 64 -86 99 -52 11 10 13 9 7 -6 -4 -12 -2 -17 5 -15 11
4 68 184 69 216 1 31 -19 7 -31 -38z m-41 -52 c30 -30 1 -98 -43 -98 -41 0
-59 46 -35 91 12 22 59 26 78 7z"/>
<path d="M8904 8718 c19 -69 18 -93 -4 -113 -30 -27 -52 -10 -69 54 -13 46
-31 69 -31 39 0 -28 23 -94 38 -111 19 -21 60 -16 80 10 7 10 12 12 12 5 0 -7
5 -12 11 -12 7 0 9 13 5 38 -13 71 -27 112 -38 112 -6 0 -8 -9 -4 -22z"/>
<path d="M1490 8720 c-22 -14 -3 -25 23 -13 27 12 57 0 57 -22 0 -11 -13 -15
-48 -15 -50 0 -72 -12 -72 -41 0 -31 30 -52 67 -46 22 4 31 2 27 -5 -4 -6 -1
-9 7 -6 8 3 20 32 28 66 12 50 12 64 1 77 -14 17 -67 20 -90 5z m70 -79 c0
-16 -30 -41 -49 -41 -22 0 -45 25 -36 40 8 12 85 14 85 1z"/>
<path d="M8520 8685 c0 -8 7 -15 15 -15 8 0 15 7 15 15 0 8 -7 15 -15 15 -8 0
-15 -7 -15 -15z"/>
<path d="M8436 8662 c-4 -7 -4 -17 -1 -23 4 -6 -1 -17 -11 -24 -18 -14 -18
-14 2 -15 17 0 23 -8 28 -41 4 -23 11 -50 17 -60 12 -23 59 -26 59 -3 0 11 -6
13 -19 9 -17 -5 -22 1 -31 37 -6 24 -13 48 -15 55 -2 6 6 14 18 18 l22 8 -21
4 c-12 2 -26 14 -31 25 -6 15 -12 18 -17 10z"/>
<path d="M8538 8645 c-9 -9 28 -139 42 -143 8 -3 11 1 8 9 -3 8 -11 40 -17 72
-12 53 -22 73 -33 62z"/>
<path d="M8354 8595 c-4 -10 -13 -13 -24 -10 -17 5 -17 1 3 -65 11 -38 24 -70
30 -70 5 0 7 10 3 23 -19 70 -19 95 3 109 25 15 27 28 6 28 -9 0 -18 -7 -21
-15z"/>
<path d="M8210 8563 c-56 -21 -70 -96 -24 -132 15 -12 35 -21 45 -21 22 0 77
46 66 56 -4 4 -16 -2 -27 -14 -26 -27 -51 -28 -74 -3 -17 19 -17 20 21 30 21
6 45 11 54 11 9 0 18 3 22 6 8 8 -20 64 -32 64 -5 0 -15 2 -23 4 -7 3 -20 2
-28 -1z m45 -30 c19 -19 11 -26 -42 -38 -26 -5 -33 -3 -33 9 0 14 36 46 52 46
3 0 14 -7 23 -17z"/>
<path d="M8021 8504 c-51 -65 2 -151 76 -123 30 11 54 39 46 53 -4 5 -11 2
-17 -6 -31 -41 -76 -42 -95 -2 -16 35 -14 48 9 69 14 13 28 16 51 11 22 -4 29
-2 27 7 -3 6 -21 13 -40 15 -29 2 -40 -2 -57 -24z"/>
<path d="M7746 8512 c-6 -10 30 -201 39 -210 16 -16 14 18 -4 109 -22 107 -25
116 -35 101z"/>
<path d="M7871 8471 c-14 -14 -22 -16 -30 -8 -14 14 -14 2 1 -79 7 -43 16 -64
25 -64 9 0 12 7 9 18 -23 76 -18 117 15 127 29 10 47 -10 55 -61 6 -40 19 -63
29 -52 8 8 -24 121 -36 129 -22 14 -48 10 -68 -10z"/>
<path d="M8600 7723 c0 -8 14 -13 36 -13 l37 0 -7 -95 c-6 -82 -5 -95 8 -95
13 0 16 16 16 95 l0 95 40 0 c77 0 39 19 -45 22 -63 2 -85 0 -85 -9z"/>
<path d="M1978 7723 c-7 -19 4 -233 13 -233 5 0 9 52 9 120 0 68 -4 120 -9
120 -6 0 -11 -3 -13 -7z"/>
<path d="M9435 7700 c-16 -16 -25 -30 -21 -30 11 0 66 43 66 52 0 16 -17 8
-45 -22z"/>
<path d="M9284 7696 c-4 -9 -4 -20 0 -23 3 -4 12 -1 18 5 9 9 9 15 0 24 -9 9
-13 7 -18 -6z"/>
<path d="M430 7565 l0 -105 49 0 c91 0 141 72 107 153 -17 42 -46 57 -112 57
l-44 0 0 -105z m115 62 c60 -51 20 -147 -61 -147 l-34 0 0 85 0 85 34 0 c22 0
45 -9 61 -23z"/>
<path d="M8779 7651 c-18 -14 -24 -29 -24 -61 0 -32 6 -47 24 -61 30 -25 73
-24 102 1 26 21 10 27 -21 8 -28 -18 -74 1 -78 31 -4 23 -3 23 57 16 61 -7 61
-7 61 19 0 58 -73 86 -121 47z m79 -13 c25 -25 13 -38 -33 -36 -26 1 -45 6
-45 13 0 18 22 35 45 35 12 0 26 -5 33 -12z"/>
<path d="M8947 7663 c-8 -17 -8 -153 0 -153 11 0 32 118 25 142 -4 18 -18 24
-25 11z"/>
<path d="M8993 7663 c-23 -9 -14 -24 10 -18 33 9 45 -11 49 -78 4 -77 22 -77
26 0 2 52 -1 66 -18 83 -19 19 -42 24 -67 13z"/>
<path d="M2091 7649 c-33 -13 -50 -38 -51 -75 0 -74 88 -107 136 -50 30 34 30
68 2 100 -28 30 -55 38 -87 25z m67 -33 c24 -29 23 -56 -2 -81 -31 -31 -41
-31 -71 0 -31 30 -31 49 -1 80 24 24 56 25 74 1z"/>
<path d="M9136 7644 c-9 -8 -16 -21 -16 -28 0 -16 29 -42 57 -50 29 -9 37 -33
14 -45 -13 -7 -24 -6 -40 5 -27 19 -41 10 -19 -12 19 -20 62 -21 83 -4 26 21
13 53 -29 75 -41 21 -47 34 -22 50 10 6 21 4 34 -9 12 -10 22 -13 26 -7 8 12
-32 41 -56 41 -9 0 -24 -7 -32 -16z"/>
<path d="M1815 7625 c-52 -51 -21 -135 48 -135 39 0 73 22 63 39 -6 9 -11 8
-20 -4 -17 -23 -65 -16 -84 13 -14 22 -14 22 45 22 33 0 62 3 66 6 3 3 1 19
-5 35 -18 53 -73 65 -113 24z m79 -11 c27 -26 18 -34 -35 -34 -51 0 -53 3 -26
38 13 17 42 15 61 -4z"/>
<path d="M9280 7570 c0 -47 4 -80 10 -80 6 0 10 33 10 80 0 47 -4 80 -10 80
-6 0 -10 -33 -10 -80z"/>
<path d="M9365 7625 c-51 -50 -15 -135 58 -135 70 0 103 85 52 135 -15 16 -36
25 -55 25 -19 0 -40 -9 -55 -25z m95 -15 c52 -52 -15 -130 -75 -86 -21 15 -23
69 -4 92 17 20 56 17 79 -6z"/>
<path d="M1480 7620 c-27 -27 -13 -54 35 -70 37 -12 46 -36 19 -47 -9 -3 -25
-1 -35 5 -30 19 -44 14 -24 -8 22 -24 67 -26 89 -4 30 30 14 58 -41 73 -32 9
-43 38 -17 48 9 3 25 1 36 -6 27 -16 38 -3 14 15 -27 20 -52 18 -76 -6z"/>
<path d="M1617 7633 c-10 -16 9 -135 24 -144 22 -14 51 -11 71 8 17 15 18 15
18 -1 0 -9 5 -14 10 -11 18 11 8 155 -11 155 -4 0 -9 -28 -11 -61 -2 -46 -8
-65 -20 -73 -32 -20 -53 4 -56 65 -3 52 -14 80 -25 62z"/>
<path d="M9540 7560 c0 -47 4 -80 10 -80 6 0 10 23 10 51 0 65 13 89 49 89 35
0 41 -14 41 -86 0 -30 5 -54 10 -54 14 0 13 133 -2 148 -7 7 -26 12 -43 12
-17 0 -36 -5 -43 -12 -9 -9 -12 -9 -12 0 0 7 -4 12 -10 12 -6 0 -10 -33 -10
-80z"/>
<path d="M983 7620 c-44 -17 -58 -90 -25 -130 22 -27 85 -32 109 -7 23 23 10
32 -20 13 -51 -34 -105 21 -78 80 12 27 57 34 79 12 8 -8 15 -9 22 -2 22 22
-47 49 -87 34z"/>
<path d="M1125 7605 c-65 -64 14 -168 95 -125 27 14 41 64 28 100 -19 55 -82
67 -123 25z m87 -12 c22 -20 24 -66 2 -87 -22 -23 -60 -20 -78 6 -21 30 -20
54 4 78 24 24 47 25 72 3z"/>
<path d="M1295 7555 c5 -88 19 -104 23 -25 4 64 16 82 51 78 24 -3 26 -7 29
-65 2 -47 7 -63 17 -63 21 0 20 98 -1 128 -18 26 -60 29 -86 5 -17 -15 -18
-15 -18 0 0 10 -4 17 -9 17 -5 0 -7 -34 -6 -75z"/>
<path d="M654 7596 c-54 -46 -27 -136 40 -136 39 0 82 28 67 43 -6 6 -15 4
-26 -7 -29 -29 -85 -15 -85 21 0 9 17 13 60 13 54 0 60 2 60 20 0 27 -43 70
-69 70 -11 0 -32 -11 -47 -24z m67 -6 c36 -20 23 -40 -26 -40 -49 0 -53 4 -28
32 19 21 27 22 54 8z"/>
<path d="M810 7605 c-18 -22 -8 -48 25 -65 55 -28 57 -30 44 -46 -15 -18 -48
-18 -55 1 -8 19 -24 19 -24 0 0 -32 67 -46 94 -19 29 29 19 53 -29 74 -25 11
-45 24 -45 30 0 18 31 24 52 11 25 -15 35 -7 18 14 -16 19 -64 20 -80 0z"/>
<path d="M6750 7448 c0 -64 -3 -79 -12 -70 -7 7 -34 12 -61 12 -41 0 -53 -5
-77 -30 -51 -54 -47 -157 7 -199 34 -27 92 -27 127 0 l26 20 0 -20 c0 -14 6
-21 20 -21 19 0 20 7 20 195 l0 195 -25 0 c-25 0 -25 -1 -25 -82z m-16 -120
c23 -33 21 -103 -4 -128 -48 -48 -115 -10 -115 65 0 55 25 85 71 85 23 0 38
-7 48 -22z"/>
<path d="M3120 7485 c0 -23 3 -25 50 -25 l50 0 -2 -157 c-3 -157 -3 -158 20
-161 l22 -3 0 160 0 160 53 3 c44 3 52 6 52 23 0 19 -8 20 -122 23 l-123 3 0
-26z"/>
<path d="M3535 7496 c-20 -15 -15 -43 10 -52 18 -7 45 12 45 32 0 22 -35 35
-55 20z"/>
<path d="M5780 7326 l0 -186 26 0 26 0 -4 135 c-2 74 -2 135 -1 135 1 0 23
-45 49 -100 40 -86 50 -100 71 -100 21 0 30 14 68 95 25 52 47 95 50 95 3 0 5
-57 4 -127 -1 -123 -1 -128 20 -131 21 -3 21 -1 21 182 l0 186 -23 0 c-21 0
-32 -17 -82 -122 l-58 -123 -59 120 c-49 100 -63 121 -83 123 l-25 3 0 -185z"/>
<path d="M6187 7488 c-7 -20 12 -48 33 -48 19 0 36 32 25 50 -9 14 -52 12 -58
-2z"/>
<path d="M3897 7443 c-4 -3 -7 -17 -7 -30 0 -18 -5 -23 -25 -23 -18 0 -25 -5
-25 -20 0 -15 7 -20 25 -20 25 0 25 -1 25 -85 0 -72 3 -88 21 -106 28 -28 83
-23 87 9 3 19 -1 22 -27 22 l-31 0 0 80 0 80 30 0 c23 0 30 4 30 20 0 16 -7
20 -30 20 -27 0 -30 3 -30 30 0 22 -5 30 -18 30 -10 0 -22 -3 -25 -7z"/>
<path d="M4113 7393 c-12 -2 -36 -20 -54 -40 -29 -34 -31 -40 -27 -96 4 -52 9
-64 36 -88 44 -39 107 -40 152 -3 29 25 29 27 13 39 -15 12 -21 11 -39 -6 -21
-19 -49 -24 -79 -13 -14 6 -45 53 -45 69 0 3 41 5 90 5 90 0 90 0 90 25 0 71
-64 121 -137 108z m75 -61 c25 -33 15 -42 -48 -42 -63 0 -73 9 -47 42 23 30
71 30 95 0z"/>
<path d="M3360 7265 c0 -116 1 -125 19 -125 17 0 19 9 22 84 4 92 22 126 66
126 16 0 23 6 23 20 0 25 -35 27 -68 4 -20 -14 -22 -14 -22 0 0 9 -9 16 -20
16 -19 0 -20 -7 -20 -125z"/>
<path d="M3530 7265 l0 -125 25 0 25 0 0 125 0 125 -25 0 -25 0 0 -125z"/>
<path d="M3667 7372 c-22 -24 -22 -76 -1 -93 9 -8 35 -21 58 -29 33 -13 41
-20 41 -40 0 -21 -5 -26 -32 -28 -22 -2 -35 3 -46 18 -9 13 -20 18 -31 14 -44
-17 14 -74 76 -74 48 0 88 35 88 78 0 36 -18 52 -79 72 -51 17 -64 42 -31 60
16 9 27 7 50 -7 23 -13 33 -14 42 -5 9 9 7 16 -7 32 -24 27 -104 28 -128 2z"/>
<path d="M4300 7370 c0 -18 7 -20 65 -20 l66 0 -66 -81 c-39 -49 -65 -90 -65
-105 0 -24 1 -24 95 -24 88 0 95 2 95 20 0 17 -8 19 -69 22 l-69 3 64 80 c36
45 64 90 64 103 0 21 -3 22 -90 22 -83 0 -90 -1 -90 -20z"/>
<path d="M4560 7370 c-24 -18 -24 -20 -8 -36 16 -16 19 -16 35 -2 10 8 25 17
33 20 24 9 60 -10 60 -30 0 -16 -12 -22 -60 -31 -65 -13 -90 -36 -90 -82 0
-34 41 -69 80 -69 15 0 39 9 54 21 l26 20 0 -20 c0 -15 6 -21 21 -21 20 0 21
4 17 111 -3 96 -6 113 -22 125 -29 21 -116 18 -146 -6z m120 -134 c0 -35 -27
-58 -64 -54 -24 2 -32 8 -34 27 -5 31 21 51 65 51 28 0 33 -3 33 -24z"/>
<path d="M6190 7265 l0 -125 25 0 25 0 0 125 0 125 -25 0 -25 0 0 -125z"/>
<path d="M6347 7379 c-28 -16 -47 -64 -47 -120 0 -45 4 -55 34 -85 45 -45 108
-48 156 -8 29 25 29 27 13 39 -15 12 -21 11 -39 -6 -39 -36 -103 -15 -119 39
-6 22 -5 22 84 22 85 0 91 1 91 20 0 33 -27 88 -48 99 -26 14 -101 14 -125 0z
m107 -51 c9 -12 16 -26 16 -30 0 -5 -29 -8 -65 -8 -36 0 -65 3 -65 8 0 25 34
52 65 52 24 0 39 -7 49 -22z"/>
<path d="M6907 7372 c-15 -9 -34 -35 -44 -60 -42 -112 70 -212 176 -157 31 16
61 69 61 109 0 39 -24 91 -51 110 -31 21 -106 20 -142 -2z m109 -30 c40 -26
45 -102 9 -137 -75 -76 -170 48 -98 128 16 17 69 23 89 9z"/>
<path d="M2240 6853 c0 -5 16 -57 36 -116 22 -66 40 -106 47 -104 15 6 16 3
-24 125 -19 59 -39 102 -46 102 -7 0 -13 -3 -13 -7z"/>
<path d="M2376 6799 c-57 -45 -14 -149 57 -135 68 14 93 82 47 131 -29 31 -68
32 -104 4z m94 -40 c16 -28 3 -58 -27 -65 -35 -9 -57 7 -61 44 -6 59 60 75 88
21z"/>
<path d="M2163 6740 c-67 -27 -65 -125 4 -151 43 -16 117 30 98 61 -10 16 -20
12 -30 -12 -11 -26 -49 -35 -71 -18 -23 20 -17 27 36 45 56 19 62 34 24 64
-30 23 -30 23 -61 11z m46 -34 c9 -11 5 -16 -20 -25 -52 -18 -65 -9 -33 23 19
20 38 20 53 2z"/>
<path d="M8387 6646 c-55 -68 -72 -96 -62 -100 8 -3 23 6 35 21 19 25 22 25
64 13 40 -11 44 -15 50 -51 4 -25 12 -39 21 -39 13 0 15 13 10 83 -10 135 -15
167 -30 167 -7 0 -47 -42 -88 -94z m83 -5 l0 -49 -32 11 c-18 6 -35 13 -37 14
-5 3 52 71 62 72 4 1 7 -21 7 -48z"/>
<path d="M8615 6688 c-61 -172 -72 -210 -58 -215 18 -7 14 -15 53 102 18 55
35 106 38 113 2 6 -3 12 -12 12 -9 0 -19 -6 -21 -12z"/>
<path d="M2043 6682 c-9 -6 -8 -19 5 -55 13 -36 14 -51 6 -65 -21 -32 -47 -20
-74 35 -19 38 -29 50 -39 43 -12 -7 -11 -15 3 -52 32 -80 67 -98 109 -55 13
12 31 21 41 19 21 -4 18 8 -17 89 -15 32 -26 46 -34 41z"/>
<path d="M1807 6592 c-35 -38 -14 -72 44 -72 44 0 56 -12 33 -34 -18 -19 -30
-20 -40 -5 -4 8 -9 8 -18 -1 -8 -8 -7 -13 4 -20 25 -16 50 -11 76 15 24 24 25
28 11 48 -11 16 -25 22 -50 22 -42 0 -54 9 -37 30 8 10 21 13 37 8 19 -4 24
-2 21 8 -7 22 -61 23 -81 1z"/>
<path d="M8663 6575 c-27 -19 -45 -78 -33 -109 10 -28 61 -50 96 -42 33 9 25
32 -11 28 -29 -3 -65 21 -65 45 0 17 12 17 57 -2 55 -23 63 -20 63 24 0 62
-57 91 -107 56z m75 -42 c3 -21 1 -22 -30 -11 -41 14 -42 14 -33 28 12 20 60
7 63 -17z"/>
<path d="M1657 6529 c-9 -11 -20 -18 -26 -14 -6 3 -14 -1 -17 -9 -8 -22 42
-126 60 -126 20 0 20 2 -5 61 -21 48 -21 50 -4 69 28 31 43 24 72 -35 15 -30
30 -55 34 -55 18 0 16 19 -9 70 -23 48 -31 55 -59 58 -23 2 -35 -3 -46 -19z"/>
<path d="M4910 6360 l0 -180 25 0 25 0 0 180 0 180 -25 0 -25 0 0 -180z"/>
<path d="M8807 6469 c-22 -55 -25 -74 -16 -83 8 -8 13 -8 16 0 2 6 14 31 26
55 17 34 28 45 50 47 31 4 32 27 1 27 -10 0 -23 6 -27 13 -14 22 -22 13 -50
-59z"/>
<path d="M8963 6511 c-4 -16 -11 -20 -24 -16 -22 7 -26 -13 -5 -21 13 -5 13
-11 0 -46 -20 -57 -18 -85 7 -99 30 -16 51 5 24 25 -19 14 -19 16 -4 58 9 23
22 43 30 44 30 2 33 5 17 17 -9 7 -16 21 -15 31 3 27 -23 32 -30 7z"/>
<path d="M1465 6455 c-50 -49 -15 -135 55 -135 46 0 84 42 76 83 -15 72 -84
100 -131 52z m100 -49 c7 -22 5 -30 -13 -49 -21 -20 -24 -21 -50 -7 -37 21
-43 71 -11 94 20 13 26 14 44 2 11 -7 24 -25 30 -40z"/>
<path d="M9045 6439 c-10 -16 3 -24 38 -24 22 0 33 -5 35 -17 3 -16 -2 -17
-40 -12 -49 7 -78 -11 -78 -46 0 -26 43 -54 71 -45 14 5 19 4 15 -4 -4 -6 0
-11 8 -11 17 0 44 55 53 106 4 25 0 35 -18 48 -27 18 -74 21 -84 5z m65 -89
c0 -15 -30 -31 -52 -28 -28 4 -37 35 -11 40 24 5 63 -2 63 -12z"/>
<path d="M5234 6416 c-41 -18 -50 -34 -31 -53 13 -14 18 -13 45 7 35 26 77 22
85 -9 6 -25 0 -31 -35 -31 -96 0 -150 -79 -93 -135 30 -31 73 -32 109 -4 21
17 26 18 26 5 0 -9 8 -16 20 -16 19 0 20 7 20 100 0 94 -2 103 -25 125 -28 28
-72 32 -121 11z m97 -154 c-10 -35 -54 -61 -78 -46 -22 13 -29 42 -14 57 10
10 81 26 93 20 3 -2 3 -15 -1 -31z"/>
<path d="M1311 6394 c-37 -31 -41 -69 -10 -108 28 -35 80 -36 114 -1 14 13 25
29 25 35 0 19 -28 10 -44 -15 -19 -30 -46 -32 -69 -7 -37 40 -7 99 44 88 34
-7 47 9 20 23 -30 17 -47 13 -80 -15z"/>
<path d="M5028 6300 c-3 -117 -2 -120 18 -120 20 0 22 6 25 79 4 85 21 117 62
123 12 2 23 11 25 21 4 22 -35 23 -66 1 -20 -14 -22 -14 -22 0 0 9 -9 16 -19
16 -18 0 -20 -9 -23 -120z"/>
<path d="M1162 6344 c-44 -31 -21 -74 39 -74 21 0 40 -4 43 -8 10 -16 -12 -34
-39 -30 -36 4 -45 -19 -11 -28 35 -8 76 19 76 50 0 33 -24 50 -60 43 -16 -4
-32 -2 -35 4 -10 15 14 39 37 36 12 -1 23 4 25 11 7 18 -48 15 -75 -4z"/>
<path d="M1007 6282 c-43 -48 -4 -132 61 -132 34 0 72 29 72 55 0 23 -24 18
-35 -7 -13 -29 -46 -34 -68 -10 -16 18 -15 19 23 32 52 17 65 32 50 59 -14 28
-80 29 -103 3z m80 -17 c3 -9 -49 -35 -70 -35 -12 0 -7 18 9 35 18 17 55 17
61 0z"/>
<path d="M787 6278 c-17 -6 -26 -15 -23 -24 3 -7 17 -48 32 -91 15 -43 31 -82
35 -87 12 -13 96 22 114 47 8 12 15 41 15 65 0 62 -41 102 -102 101 -24 0 -56
-5 -71 -11z m103 -23 c31 -16 51 -63 42 -99 -4 -16 -56 -56 -74 -56 -8 0 -48
104 -51 133 -1 14 6 23 23 28 14 4 26 7 28 8 2 1 16 -6 32 -14z"/>
<path d="M7409 6103 c-70 -100 -71 -101 -60 -107 10 -7 142 169 134 178 -12
12 -21 4 -74 -71z"/>
<path d="M2828 6094 c-51 -27 -47 -94 7 -130 21 -14 30 -14 54 -5 27 12 51 47
51 76 0 19 -41 62 -65 69 -11 3 -32 -2 -47 -10z m78 -39 c20 -31 8 -69 -26
-78 -26 -7 -70 31 -70 61 0 47 68 59 96 17z"/>
<path d="M2670 6074 c0 -16 133 -183 141 -178 6 3 -1 20 -14 37 -13 18 -43 58
-66 90 -39 51 -61 70 -61 51z"/>
<path d="M7443 6020 c-50 -71 -41 -89 12 -25 37 45 61 55 83 33 19 -19 14 -39
-18 -88 -32 -48 -36 -60 -20 -60 12 0 80 106 80 124 0 21 -51 58 -71 53 -12
-3 -16 0 -12 9 13 34 -17 9 -54 -46z"/>
<path d="M2620 5940 c-11 -11 -20 -24 -20 -30 0 -5 -7 -7 -15 -4 -8 4 -15 2
-15 -4 0 -12 81 -112 92 -112 15 0 8 15 -22 50 -32 38 -37 59 -18 78 22 22 46
13 82 -30 19 -24 38 -40 42 -36 14 15 -64 108 -91 108 -8 0 -24 -9 -35 -20z"/>
<path d="M7592 5937 c-12 -13 -25 -37 -28 -54 -5 -26 -1 -37 20 -58 28 -28 76
-32 84 -6 3 9 -1 11 -16 6 -12 -3 -30 -1 -42 5 -40 22 -16 110 31 110 24 0 59
-30 59 -51 0 -10 5 -19 10 -19 21 0 9 49 -16 69 -35 28 -75 27 -102 -2z"/>
<path d="M7732 5837 c-12 -13 -25 -37 -28 -54 -5 -26 -1 -37 20 -58 26 -26 78
-33 76 -10 -1 6 -8 9 -16 7 -28 -6 -54 18 -54 48 0 17 3 30 6 30 3 0 23 -13
44 -30 21 -16 42 -30 48 -30 13 0 22 25 22 60 0 56 -78 80 -118 37z m79 -7
c17 -10 28 -60 13 -60 -5 0 -54 32 -74 47 -5 5 21 23 33 23 5 0 17 -5 28 -10z"/>
<path d="M2482 5834 c-33 -23 -31 -86 4 -113 33 -26 65 -27 93 -3 23 19 32 54
16 62 -5 3 -11 -5 -13 -17 -4 -29 -26 -45 -53 -41 -38 5 -32 25 17 59 l47 32
-22 19 c-28 22 -59 23 -89 2z m65 -19 c4 -15 -60 -56 -71 -45 -15 15 22 62 46
58 12 -2 23 -7 25 -13z"/>
<path d="M7863 5712 c-22 -31 -39 -60 -36 -65 3 -4 24 13 48 38 37 40 46 45
70 39 21 -5 26 -4 23 7 -3 8 -17 13 -32 12 -23 -2 -26 0 -16 13 10 11 10 14
-1 14 -8 -1 -33 -26 -56 -58z"/>
<path d="M2356 5729 c-14 -11 -26 -27 -26 -35 0 -8 -10 -14 -23 -14 -27 0 -47
-17 -47 -42 0 -11 -5 -15 -15 -12 -25 10 -17 -9 30 -64 24 -29 46 -48 50 -42
3 6 -7 27 -24 47 -33 40 -38 62 -19 81 21 21 42 13 80 -30 46 -54 62 -43 18
11 -62 80 -18 122 54 52 23 -23 45 -39 49 -35 9 9 -44 73 -74 89 -24 13 -30
12 -53 -6z"/>
<path d="M8020 5715 c-9 -11 -16 -12 -25 -5 -16 13 -28 0 -14 -16 7 -9 2 -24
-20 -55 -36 -49 -38 -60 -12 -83 14 -13 21 -14 26 -6 4 7 1 16 -6 21 -12 7
-11 14 5 44 26 48 42 61 60 46 9 -8 16 -8 20 -2 4 5 -2 14 -11 20 -14 8 -16
12 -5 22 6 7 12 17 12 21 0 13 -17 9 -30 -7z"/>
<path d="M8110 5664 c0 -9 5 -14 12 -12 18 6 21 28 4 28 -9 0 -16 -7 -16 -16z"/>
<path d="M2145 5630 c-4 -6 -3 -16 3 -22 6 -6 12 -6 17 2 4 6 3 16 -3 22 -6 6
-12 6 -17 -2z"/>
<path d="M8047 5588 c-42 -54 -54 -78 -39 -78 16 0 96 110 86 119 -5 5 -25
-13 -47 -41z"/>
<path d="M2067 5593 c-4 -4 9 -24 30 -45 34 -35 35 -38 15 -38 -13 0 -34 -11
-48 -26 -20 -19 -24 -31 -20 -52 8 -32 50 -72 75 -72 27 0 71 38 71 62 0 17 2
18 15 8 34 -28 11 10 -51 85 -71 85 -76 90 -87 78z m93 -122 c18 -35 12 -67
-16 -80 -50 -22 -98 34 -67 78 19 27 68 28 83 2z"/>
<path d="M8262 5558 c-20 -26 -32 -35 -32 -25 0 15 -53 57 -72 57 -4 0 -23
-14 -43 -31 -27 -24 -35 -39 -35 -65 0 -41 34 -77 68 -71 17 3 20 1 12 -8 -6
-7 -7 -16 -3 -18 8 -5 146 166 152 188 6 25 -18 11 -47 -27z m-64 -10 c29 -29
-6 -108 -46 -108 -21 0 -52 30 -52 50 0 48 68 88 98 58z"/>
<path d="M2177 5583 c-7 -10 79 -113 94 -113 17 0 8 15 -40 69 -27 29 -51 49
-54 44z"/>
<path d="M3446 5569 c-34 -27 -35 -71 -1 -104 13 -14 34 -25 45 -25 25 0 80
51 80 75 0 23 -54 75 -78 75 -11 0 -31 -9 -46 -21z m79 -24 c30 -29 31 -39 5
-65 -25 -25 -41 -25 -68 0 -26 25 -28 47 -5 72 22 24 39 23 68 -7z"/>
<path d="M6856 5449 c-95 -71 -89 -65 -81 -78 4 -7 19 -1 41 15 34 26 35 26
49 8 19 -26 19 -31 -10 -80 -14 -24 -21 -45 -16 -49 6 -3 21 14 35 38 23 38
30 43 54 39 33 -4 62 19 62 49 0 18 -25 73 -47 106 -6 8 -32 -7 -87 -48z m97
-10 c22 -40 22 -56 -3 -69 -17 -9 -26 -6 -52 21 l-32 32 28 23 c35 30 37 30
59 -7z"/>
<path d="M3326 5471 c-4 -5 -2 -13 4 -16 6 -4 8 -15 5 -26 -7 -20 9 -27 20 -9
4 6 22 -2 45 -20 21 -16 42 -30 48 -30 14 0 36 29 28 37 -4 4 -11 1 -15 -6 -7
-11 -16 -8 -45 14 -29 22 -35 32 -30 49 6 18 5 19 -10 7 -12 -10 -19 -11 -30
-2 -9 8 -16 8 -20 2z"/>
<path d="M8263 5432 c-18 -26 -33 -55 -33 -64 0 -24 28 -48 55 -48 19 0 23 -4
19 -17 -6 -18 42 31 77 79 29 40 5 43 -25 3 -38 -50 -63 -61 -87 -39 -25 23
-25 25 15 77 31 40 36 57 17 57 -3 0 -21 -21 -38 -48z"/>
<path d="M1982 5409 c-5 -11 -11 -20 -15 -20 -4 1 -10 1 -13 1 -3 0 13 -24 37
-52 24 -29 44 -55 45 -57 2 -1 8 0 14 4 6 4 -3 22 -25 48 -40 46 -41 53 -18
79 15 17 15 18 -1 18 -9 0 -20 -9 -24 -21z"/>
<path d="M3282 5357 c-12 -13 -22 -28 -22 -34 0 -6 -6 -13 -12 -16 -7 -2 -11
-6 -8 -9 20 -19 105 -78 111 -78 20 0 7 19 -31 45 -43 30 -52 62 -25 85 12 10
24 6 65 -20 28 -18 54 -30 57 -26 7 7 10 5 -46 45 -53 37 -61 38 -89 8z"/>
<path d="M8410 5323 c-47 -63 -53 -73 -46 -81 4 -3 26 16 50 43 41 47 45 49
70 37 35 -15 33 -30 -10 -86 -49 -64 -34 -72 21 -12 42 46 46 48 67 34 33 -22
32 -30 -8 -81 -34 -44 -41 -69 -14 -52 23 14 70 89 70 111 0 25 -26 44 -59 44
-14 0 -21 6 -21 20 0 24 -41 53 -64 44 -12 -5 -15 -2 -10 10 12 31 -11 15 -46
-31z"/>
<path d="M1856 5319 c-17 -14 -26 -30 -26 -49 0 -40 39 -82 75 -82 33 0 75 41
75 73 0 26 -52 79 -78 79 -11 0 -31 -9 -46 -21z m83 -25 c25 -32 26 -42 4 -66
-22 -25 -59 -23 -77 4 -22 31 -20 54 6 72 31 22 43 20 67 -10z"/>
<path d="M5983 5249 c-108 -91 -105 -99 39 -99 83 0 109 3 105 13 -3 8 -31 12
-95 12 -51 0 -92 0 -92 1 0 1 31 25 70 55 65 51 81 71 62 82 -4 3 -44 -26 -89
-64z"/>
<path d="M6925 5265 c-30 -30 -32 -64 -4 -99 20 -25 59 -36 59 -16 0 6 -6 10
-13 10 -25 0 -50 37 -43 65 9 36 22 31 52 -20 14 -25 30 -45 34 -45 14 0 40
43 40 65 0 29 -41 65 -74 65 -15 0 -37 -10 -51 -25z m89 -14 c17 -18 15 -61
-2 -61 -7 0 -52 65 -52 75 0 13 39 3 54 -14z"/>
<path d="M4197 5262 c-26 -29 -22 -77 9 -101 37 -29 78 -27 103 5 27 35 26 59
-4 89 -30 31 -84 34 -108 7z m99 -27 c15 -23 15 -27 0 -50 -9 -14 -26 -25 -38
-25 -45 0 -76 58 -46 88 21 21 66 14 84 -13z"/>
<path d="M8646 5170 c-41 -49 -72 -92 -67 -95 6 -3 13 0 17 7 6 9 10 5 14 -11
3 -13 17 -33 32 -44 24 -18 30 -18 58 -7 39 16 60 46 60 87 0 34 -29 63 -63
63 -16 0 -14 5 12 37 17 21 31 41 31 45 0 21 -24 0 -94 -82z m79 -40 c15 -16
16 -24 6 -48 -18 -43 -47 -57 -77 -37 -28 18 -31 50 -8 83 19 27 55 28 79 2z"/>
<path d="M3193 5239 c-24 -9 -43 -38 -43 -67 0 -24 54 -72 80 -72 42 0 86 75
51 88 -9 3 -11 0 -7 -7 9 -14 -19 -61 -37 -61 -6 0 -19 5 -27 10 -12 8 -8 16
23 48 20 21 37 41 37 44 0 12 -56 25 -77 17z m47 -28 c0 -13 -56 -61 -63 -54
-14 13 -7 42 14 57 20 14 49 12 49 -3z"/>
<path d="M1726 5215 c-8 -8 -17 -24 -21 -35 -4 -12 -12 -17 -21 -13 -17 6 -54
-23 -54 -44 0 -7 -7 -13 -16 -13 -11 0 -3 -16 27 -52 24 -29 44 -55 45 -57 2
-1 8 0 14 4 8 5 4 16 -13 34 -13 14 -30 37 -37 50 -10 20 -9 26 9 44 l21 21
48 -47 c57 -56 78 -52 26 5 -38 42 -42 73 -11 92 16 9 25 4 61 -38 30 -34 45
-45 51 -37 9 16 -72 101 -96 101 -10 0 -24 -7 -33 -15z"/>
<path d="M7028 5122 c-55 -35 -70 -52 -48 -52 6 0 29 12 52 26 34 22 45 24 64
15 40 -18 30 -48 -26 -76 -27 -14 -50 -30 -50 -35 0 -13 1 -13 55 10 63 27 83
26 95 -6 13 -32 9 -38 -46 -70 -24 -14 -41 -30 -38 -35 3 -5 22 0 42 12 82 49
90 72 42 120 -16 17 -29 33 -28 37 5 17 -15 52 -32 57 -11 4 -17 12 -13 21 8
21 -6 16 -69 -24z"/>
<path d="M3060 5135 c0 -9 5 -15 11 -13 6 2 11 8 11 13 0 5 -5 11 -11 13 -6 2
-11 -4 -11 -13z"/>
<path d="M4155 5130 c-5 -15 -12 -19 -31 -14 -29 8 -33 -12 -3 -21 12 -4 18
-12 15 -21 -6 -17 6 -18 21 -3 8 8 24 7 59 -5 53 -18 74 -20 74 -7 0 4 -27 16
-61 25 -51 15 -60 21 -56 37 7 26 -10 35 -18 9z"/>
<path d="M3110 5103 c1 -15 89 -75 100 -68 6 4 -9 21 -37 41 -48 34 -63 41
-63 27z"/>
<path d="M6000 5103 c-31 -11 -50 -37 -50 -67 0 -36 24 -76 46 -76 20 0 17 13
-6 28 -22 14 -27 61 -8 80 19 19 25 15 38 -35 18 -65 25 -71 55 -43 32 30 32
64 0 95 -23 24 -44 29 -75 18z m68 -35 c16 -16 15 -43 -2 -57 -16 -14 -21 -8
-31 37 -7 34 9 44 33 20z"/>
<path d="M5110 5057 c-63 -21 -95 -37 -95 -47 0 -9 34 -29 90 -52 98 -41 115
-44 115 -25 0 7 -38 25 -85 42 -46 16 -82 31 -79 34 3 3 40 15 82 27 54 14 78
25 80 37 4 21 6 22 -108 -16z"/>
<path d="M8772 5025 c-18 -25 -35 -52 -38 -60 -11 -28 13 -15 45 26 26 31 39
40 59 38 15 -2 27 1 27 6 0 6 -10 10 -23 10 -14 -1 -21 4 -18 12 12 30 -21 9
-52 -32z"/>
<path d="M1507 5042 c-39 -43 -1 -132 55 -132 44 1 94 64 63 80 -5 3 -11 -5
-13 -18 -4 -27 -35 -45 -62 -37 -29 9 -25 17 25 55 42 32 44 35 28 52 -21 23
-75 23 -96 0z m70 -17 c1 -5 -12 -20 -30 -33 -32 -22 -32 -22 -35 -2 -2 12 2
28 9 36 13 16 50 15 56 -1z"/>
<path d="M3060 5042 c0 -8 95 -82 105 -82 3 0 5 6 5 13 0 6 -23 27 -50 45 -52
34 -60 37 -60 24z"/>
<path d="M4115 5010 c-12 -13 -15 -27 -11 -44 5 -21 3 -24 -10 -19 -12 4 -15
2 -12 -8 5 -15 114 -52 138 -46 9 2 4 8 -15 15 -58 22 -80 38 -83 58 -5 36 18
45 73 29 55 -17 65 -18 65 -7 0 7 -99 42 -119 42 -4 0 -16 -9 -26 -20z"/>
<path d="M3010 5001 c-7 -14 -7 -22 1 -27 12 -7 29 12 29 34 0 19 -18 14 -30
-7z"/>
<path d="M1328 4969 l-37 -30 61 -79 c34 -44 65 -80 70 -80 15 0 8 27 -12 45
-21 19 -27 45 -11 45 5 0 32 -5 60 -12 35 -8 55 -8 62 -1 6 6 -8 14 -45 22
-54 12 -54 12 -43 40 9 23 7 34 -6 55 -23 34 -53 33 -99 -5z m74 -6 c23 -21
23 -32 -4 -60 l-22 -23 -28 27 -28 27 27 23 c34 27 32 27 55 6z"/>
<path d="M8883 4990 c-22 -9 -53 -57 -53 -83 0 -29 41 -67 71 -67 16 0 29 5
29 10 0 6 -11 10 -24 10 -31 0 -48 22 -44 55 l3 26 44 -37 c41 -36 44 -37 57
-19 21 28 17 63 -11 90 -26 27 -37 29 -72 15z m70 -41 c6 -9 7 -24 4 -33 -6
-15 -11 -14 -41 10 -19 16 -32 32 -29 37 8 13 55 4 66 -14z"/>
<path d="M2978 4949 c-10 -5 -18 -17 -18 -26 0 -14 2 -14 19 1 19 17 22 17 65
-14 24 -18 50 -30 57 -28 8 3 -10 20 -41 41 -61 41 -58 40 -82 26z"/>
<path d="M6053 4916 c-73 -25 -78 -29 -58 -46 9 -8 15 -9 15 -2 0 6 17 16 38
21 55 16 73 14 70 -6 -2 -12 4 -19 20 -21 12 -2 22 1 22 7 0 6 -7 11 -16 11
-8 0 -13 4 -9 9 3 5 1 12 -4 16 -6 3 -8 12 -4 20 6 18 4 18 -74 -9z"/>
<path d="M5055 4898 c-28 -16 -35 -28 -35 -64 0 -18 8 -38 20 -49 11 -10 20
-13 20 -7 0 6 -4 14 -10 17 -14 9 -13 58 2 73 7 7 18 12 26 12 12 0 14 -11 9
-55 -5 -53 -5 -55 18 -55 26 0 65 42 65 70 0 46 -73 83 -115 58z m85 -33 c16
-20 9 -45 -18 -63 -23 -15 -23 -15 -21 31 3 48 16 60 39 32z"/>
<path d="M7169 4881 c-34 -35 -36 -59 -9 -94 26 -33 63 -41 99 -23 58 31 55
102 -6 134 -34 18 -52 14 -84 -17z m91 -11 c38 -38 18 -90 -35 -90 -63 0 -82
68 -27 99 25 15 40 13 62 -9z"/>
<path d="M2927 4894 c-7 -7 90 -84 105 -84 19 0 5 18 -42 53 -54 40 -54 40
-63 31z"/>
<path d="M4070 4860 c-23 -23 -26 -68 -7 -94 7 -9 31 -20 53 -23 36 -5 43 -2
62 22 23 29 29 70 12 80 -6 4 -10 -6 -10 -24 0 -31 -22 -61 -46 -61 -17 0 -17
-3 2 54 14 41 14 50 3 57 -23 14 -48 10 -69 -11z m54 -22 c-17 -58 -24 -67
-39 -62 -21 8 -19 60 3 73 30 18 44 13 36 -11z"/>
<path d="M2852 4859 c2 -6 8 -10 13 -10 5 0 11 4 13 10 2 6 -4 11 -13 11 -9 0
-15 -5 -13 -11z"/>
<path d="M2900 4828 c0 -12 87 -78 103 -78 18 0 3 20 -35 46 -67 46 -68 46
-68 32z"/>
<path d="M6075 4816 c-91 -28 -95 -30 -95 -75 0 -44 27 -74 61 -69 37 5 46 31
26 74 -20 40 -20 41 7 46 13 2 21 -6 30 -32 10 -31 15 -35 46 -35 32 0 35 3
38 33 3 32 -20 83 -36 81 -4 -1 -38 -11 -77 -23z m95 -25 c13 -25 3 -51 -21
-51 -21 0 -43 35 -35 56 8 20 44 17 56 -5z m-124 -36 c22 -33 15 -60 -16 -60
-31 0 -51 45 -30 69 17 22 27 20 46 -9z"/>
<path d="M2800 4821 c0 -5 14 -21 32 -36 25 -21 29 -28 17 -36 -8 -5 -17 -9
-20 -9 -3 0 -11 -11 -17 -25 -21 -45 22 -105 73 -105 27 0 65 40 65 68 0 16 4
20 18 15 24 -8 11 4 -80 76 -80 63 -88 68 -88 52z m108 -97 c26 -18 29 -56 6
-78 -19 -20 -34 -20 -62 0 -27 19 -30 68 -4 83 24 14 34 13 60 -5z"/>
<path d="M7283 4738 c-40 -23 -69 -46 -65 -50 9 -9 152 69 152 83 0 15 -12 10
-87 -33z"/>
<path d="M3950 4735 c0 -8 5 -15 10 -15 6 0 10 7 10 15 0 8 -4 15 -10 15 -5 0
-10 -7 -10 -15z"/>
<path d="M4000 4722 c0 -10 111 -52 137 -52 32 0 8 18 -44 34 -91 28 -93 28
-93 18z"/>
<path d="M5012 4708 c3 -8 21 -11 52 -9 49 3 78 -11 70 -33 -3 -8 3 -16 12
-20 22 -8 33 2 14 14 -8 6 -11 10 -6 10 5 0 3 7 -4 15 -9 10 -9 15 -1 15 6 0
11 5 11 10 0 6 -32 10 -76 10 -55 0 -75 -3 -72 -12z"/>
<path d="M6167 4678 c-64 -17 -83 -71 -40 -114 13 -12 13 -18 4 -24 -27 -16 8
-18 67 -3 74 19 82 34 12 26 -58 -7 -80 6 -80 47 0 28 13 37 78 55 23 7 31 26
10 24 -7 -1 -30 -6 -51 -11z"/>
<path d="M7306 4669 c-14 -11 -26 -31 -26 -43 0 -22 44 -91 58 -91 17 1 171
108 166 116 -3 5 -19 -1 -37 -13 -24 -17 -32 -19 -35 -8 -9 26 -51 60 -75 60
-13 0 -36 -9 -51 -21z m86 -16 c25 -23 23 -48 -8 -67 -33 -22 -55 -17 -73 16
-14 24 -14 28 3 47 23 25 53 27 78 4z"/>
<path d="M2757 4653 c-4 -3 -7 -15 -7 -25 0 -11 -4 -16 -10 -13 -5 3 -10 2
-10 -3 0 -14 108 -93 114 -83 3 4 -13 23 -35 41 -35 28 -40 37 -35 61 5 27 -2
37 -17 22z"/>
<path d="M3990 4635 c-7 -8 -10 -31 -8 -50 3 -24 0 -35 -9 -35 -19 0 -36 -39
-29 -66 5 -17 2 -24 -9 -24 -8 0 -15 -3 -15 -7 0 -10 132 -55 139 -48 8 9 -12
22 -51 34 -39 13 -54 37 -43 71 8 24 36 26 94 5 34 -12 41 -12 41 -1 0 8 -12
17 -27 21 -46 11 -73 33 -73 61 0 33 17 38 69 19 49 -17 75 -19 66 -6 -5 9
-102 41 -123 41 -5 0 -15 -7 -22 -15z"/>
<path d="M4970 4601 c-25 -48 -2 -111 39 -111 28 0 45 28 44 71 -2 32 1 39 17
39 16 0 18 -5 13 -33 -7 -45 25 -76 62 -59 20 9 25 19 25 50 0 55 -12 62 -107
62 -71 0 -84 -3 -93 -19z m64 -34 c8 -21 6 -31 -6 -44 -25 -24 -48 -9 -48 30
0 19 3 37 7 41 14 14 38 0 47 -27z m121 14 c9 -29 -5 -52 -29 -49 -37 5 -34
68 3 68 11 0 22 -8 26 -19z"/>
<path d="M7520 4575 c0 -9 5 -15 11 -13 6 2 11 8 11 13 0 5 -5 11 -11 13 -6 2
-11 -4 -11 -13z"/>
<path d="M7433 4519 c-55 -36 -77 -59 -57 -59 12 0 124 81 124 90 0 14 2 15
-67 -31z"/>
<path d="M2665 4515 c-14 -13 -25 -36 -25 -50 0 -35 42 -75 78 -75 35 0 72 37
72 72 0 30 -50 78 -81 78 -11 0 -31 -11 -44 -25z m81 -18 c22 -19 26 -29 20
-50 -12 -48 -86 -45 -101 3 -8 24 18 70 40 70 7 0 26 -10 41 -23z"/>
<path d="M6303 4489 c15 -11 27 -29 27 -40 0 -10 5 -19 10 -19 6 0 10 9 10 19
0 20 -44 61 -64 61 -6 0 1 -10 17 -21z"/>
<path d="M6210 4493 c-30 -11 -50 -37 -50 -63 0 -32 35 -80 58 -80 13 0 10 6
-11 25 -30 29 -35 66 -11 86 20 16 30 2 40 -54 7 -47 30 -59 56 -28 47 59 -11
140 -82 114z m76 -49 c7 -27 -1 -54 -15 -54 -9 0 -31 53 -31 76 0 22 40 3 46
-22z"/>
<path d="M7460 4448 c-36 -22 -59 -43 -52 -45 7 -3 35 10 63 27 48 31 50 32
69 15 33 -30 24 -52 -30 -86 -28 -17 -47 -35 -44 -40 3 -6 19 -1 37 11 57 38
77 45 95 33 30 -18 23 -37 -23 -68 -40 -27 -56 -45 -38 -45 3 0 28 14 55 31
34 22 48 38 48 53 0 24 -28 56 -48 56 -7 0 -12 9 -12 20 0 11 -8 28 -18 38
-10 10 -16 24 -14 30 7 22 -23 12 -88 -30z"/>
<path d="M5063 4450 c-30 -12 -39 -54 -19 -85 14 -22 15 -25 1 -25 -8 0 -15
-4 -15 -10 0 -6 30 -10 70 -10 40 0 70 4 70 10 0 6 -20 10 -43 10 -30 0 -49 6
-60 18 -37 41 -13 72 54 72 56 0 73 15 28 24 -40 8 -59 7 -86 -4z"/>
<path d="M2567 4382 c-10 -10 -17 -28 -17 -40 0 -12 -6 -22 -13 -22 -20 0 -47
-33 -47 -58 0 -12 -3 -21 -7 -21 -27 4 -20 -6 30 -41 58 -42 70 -47 74 -33 1
4 -16 21 -38 36 -32 22 -40 33 -37 54 6 47 30 51 80 10 60 -49 70 -34 13 19
-45 41 -51 66 -21 86 17 12 20 10 69 -27 47 -36 74 -34 34 2 -62 56 -93 65
-120 35z"/>
<path d="M3842 4389 c2 -6 8 -10 13 -10 5 0 11 4 13 10 2 6 -4 11 -13 11 -9 0
-15 -5 -13 -11z"/>
<path d="M3890 4372 c0 -11 129 -56 137 -48 8 8 7 9 -60 34 -64 24 -77 26 -77
14z"/>
<path d="M6310 4330 c-8 -5 -37 -17 -65 -26 -58 -19 -59 -20 -51 -32 4 -6 24
-3 53 7 58 21 81 17 89 -15 8 -32 -9 -51 -57 -64 -22 -6 -39 -17 -39 -24 0
-11 11 -10 53 6 28 11 56 23 61 28 14 14 10 59 -8 79 -9 10 -14 25 -10 35 7
18 -3 21 -26 6z"/>
<path d="M3810 4324 c0 -3 16 -12 36 -20 34 -14 35 -16 20 -33 -17 -18 -20
-48 -10 -76 9 -23 62 -48 90 -41 30 8 58 50 51 76 -3 11 -1 20 4 20 5 0 9 4 9
9 0 5 -38 23 -86 40 -82 30 -114 37 -114 25z m157 -66 c21 -17 15 -56 -11 -73
-54 -36 -115 34 -70 80 18 17 56 14 81 -7z"/>
<path d="M7633 4255 c-46 -30 -83 -59 -83 -65 0 -5 2 -10 5 -10 11 0 175 114
175 122 0 15 -14 8 -97 -47z"/>
<path d="M5070 4273 c-39 -14 -55 -88 -25 -113 19 -16 34 -5 17 12 -23 23 -12
73 18 80 16 3 17 -1 19 -67 1 -38 4 -45 21 -45 34 0 63 37 56 74 -10 51 -56
77 -106 59z m88 -66 c2 -18 -3 -29 -17 -36 -24 -13 -27 -9 -30 48 l-3 45 24
-16 c12 -8 24 -27 26 -41z"/>
<path d="M5180 4261 c0 -5 7 -12 16 -15 12 -4 15 -15 12 -36 -3 -19 -1 -29 6
-27 19 6 19 48 0 68 -18 20 -34 25 -34 10z"/>
<path d="M7635 4175 c-32 -32 -31 -57 3 -96 22 -24 33 -30 50 -25 12 4 22 12
22 18 0 5 -7 8 -15 4 -34 -13 -72 27 -60 64 9 30 20 25 56 -25 31 -43 33 -44
51 -28 10 9 18 29 18 45 0 63 -78 91 -125 43z m93 -7 c15 -15 16 -58 1 -58
-12 0 -31 20 -50 53 -8 14 -6 17 14 17 12 0 28 -5 35 -12z"/>
<path d="M2400 4160 c-27 -27 -25 -63 3 -96 31 -35 82 -38 109 -5 19 25 25 71
8 71 -5 0 -10 -10 -10 -23 0 -13 -5 -28 -12 -35 -12 -12 -68 -17 -68 -6 0 4
16 25 36 47 35 38 36 41 19 54 -27 19 -62 16 -85 -7z m63 -6 c8 -9 -45 -74
-55 -68 -12 8 -10 48 4 62 13 13 41 16 51 6z"/>
<path d="M6370 4165 c0 -3 9 -24 19 -45 11 -22 18 -40 16 -40 -1 0 -28 11 -59
25 -52 23 -86 31 -86 21 0 -16 44 -116 51 -116 13 0 11 12 -6 53 -8 20 -15 39
-15 41 0 3 30 -8 66 -24 36 -17 69 -28 73 -25 9 5 -40 115 -51 115 -4 0 -8 -2
-8 -5z"/>
<path d="M3825 4150 c-3 -6 -3 -19 0 -30 5 -15 3 -18 -9 -14 -9 3 -16 2 -16
-3 0 -12 137 -59 146 -50 4 4 -16 16 -44 28 -49 20 -71 47 -57 69 3 5 2 10 -4
10 -5 0 -13 -5 -16 -10z"/>
<path d="M5098 4102 c-78 -3 -93 -22 -19 -22 32 0 55 -6 65 -16 37 -36 10 -64
-61 -64 -29 0 -53 -4 -53 -10 0 -6 26 -10 59 -10 81 0 109 28 80 82 -8 15 -8
22 1 28 19 12 0 15 -72 12z"/>
<path d="M2241 4043 c-17 -21 -31 -40 -31 -44 0 -9 147 -119 160 -119 19 0 10
16 -20 38 -16 13 -30 27 -30 32 0 6 26 10 59 10 41 0 62 5 72 16 11 14 7 15
-47 13 l-59 -3 3 28 c4 34 -22 66 -54 66 -14 0 -34 -14 -53 -37z m77 5 c16
-16 15 -49 -2 -70 -18 -24 -28 -23 -56 7 l-23 25 23 25 c26 28 40 31 58 13z"/>
<path d="M7747 4024 c-67 -42 -67 -68 -1 -29 43 25 47 26 70 11 30 -21 30 -31
-1 -53 -57 -40 -70 -52 -63 -58 7 -8 77 34 97 59 17 20 0 66 -24 66 -8 0 -15
5 -15 10 0 6 5 10 11 10 5 0 7 5 4 10 -9 15 -16 13 -78 -26z"/>
<path d="M3782 4007 c-48 -51 -12 -127 60 -127 43 0 58 16 65 68 5 34 2 42
-22 60 -36 29 -76 28 -103 -1z m86 -13 c39 -27 22 -94 -25 -94 -53 0 -83 59
-47 94 20 20 43 20 72 0z"/>
<path d="M6437 4014 c-3 -4 1 -17 9 -30 17 -25 16 -65 -1 -71 -6 -2 -16 12
-23 30 -6 18 -18 41 -26 52 -13 18 -15 18 -40 2 -34 -23 -34 -60 -1 -92 18
-16 22 -24 13 -28 -7 -2 -10 -7 -7 -11 4 -4 32 4 63 18 47 21 56 29 56 51 0
14 -7 39 -15 55 -17 32 -18 33 -28 24z m-33 -72 c5 -18 6 -35 3 -38 -12 -12
-47 8 -53 31 -13 54 34 61 50 7z"/>
<path d="M5030 3918 c0 -44 13 -98 22 -98 6 0 8 18 4 45 -4 25 -4 45 1 45 4 0
30 -21 56 -45 27 -25 52 -45 58 -45 11 0 11 78 -1 105 -6 15 -9 8 -9 -28 l-1
-47 -55 45 c-63 51 -75 55 -75 23z"/>
<path d="M7877 3924 c-4 -4 0 -15 9 -25 14 -16 12 -19 -31 -49 -25 -17 -43
-35 -40 -41 4 -5 27 5 53 23 29 20 47 27 50 20 2 -7 13 -12 24 -12 11 0 18 5
15 13 -2 6 -10 11 -16 10 -18 -4 -13 7 12 27 28 23 15 38 -15 18 -20 -14 -24
-13 -38 4 -8 11 -19 16 -23 12z"/>
<path d="M3725 3843 c-10 -10 -15 -27 -13 -43 3 -19 -2 -31 -15 -40 -15 -9
-18 -19 -14 -46 4 -25 2 -34 -9 -34 -32 0 -11 -16 44 -33 31 -10 63 -21 71
-24 8 -3 12 0 9 8 -2 7 -19 18 -37 24 -36 12 -61 39 -61 66 0 28 14 30 74 10
31 -10 59 -15 62 -10 5 9 -24 23 -72 35 -25 6 -42 43 -29 65 7 11 47 8 103 -7
12 -4 22 -2 22 3 0 8 -93 43 -113 43 -3 0 -13 -7 -22 -17z"/>
<path d="M7905 3798 c-28 -16 -35 -28 -35 -64 0 -65 86 -102 132 -56 62 61
-21 163 -97 120z m77 -25 c38 -34 15 -93 -38 -93 -24 0 -54 29 -54 53 0 48 56
73 92 40z"/>
<path d="M5046 3774 c-19 -18 -20 -38 -5 -67 9 -16 9 -22 0 -25 -29 -10 -5
-22 44 -22 78 0 113 41 89 104 -12 30 -22 16 -17 -23 5 -33 2 -41 -16 -50 -20
-11 -21 -9 -21 24 0 67 -37 97 -74 59z m52 -47 c3 -39 -12 -49 -36 -25 -16 16
-15 55 1 61 23 10 32 0 35 -36z"/>
<path d="M3640 3590 c-11 -11 -20 -33 -20 -49 0 -56 86 -94 124 -55 19 18 30
59 21 73 -11 19 -22 12 -18 -12 5 -26 -19 -57 -43 -57 -15 0 -12 24 8 79 15
42 -36 57 -72 21z m54 -22 c-20 -65 -24 -71 -39 -58 -20 17 -19 57 3 69 30 18
44 13 36 -11z"/>
<path d="M3547 3458 c-14 -11 -52 -99 -45 -102 14 -7 177 -56 186 -56 27 0 9
18 -28 29 -36 11 -40 15 -34 34 9 28 20 36 67 43 20 4 37 11 37 17 0 10 -49 5
-82 -8 -13 -5 -18 -2 -18 8 0 16 -36 47 -55 47 -6 0 -19 -6 -28 -12z m63 -63
c0 -42 -9 -48 -50 -34 -27 10 -31 15 -25 38 15 62 75 59 75 -4z"/>
<path d="M2393 2541 c-72 -64 -132 -119 -132 -123 -1 -4 11 -11 25 -14 19 -5
32 0 54 21 l30 28 62 -25 63 -24 -2 -56 c-3 -49 0 -56 21 -66 l23 -10 11 111
c27 267 27 251 1 263 -22 10 -35 1 -156 -105z m120 -18 c-3 -38 -8 -71 -12
-74 -3 -4 -27 4 -54 16 l-48 22 58 51 c32 28 59 51 60 52 1 0 0 -30 -4 -67z"/>
<path d="M7854 2610 c-40 -16 -74 -68 -74 -113 0 -119 128 -178 209 -97 55 56
49 133 -15 190 -36 31 -76 38 -120 20z m81 -46 c20 -8 45 -56 45 -89 0 -62
-85 -88 -130 -40 -29 31 -32 85 -5 115 18 20 58 26 90 14z"/>
<path d="M7613 2485 c-127 -55 -65 -275 71 -250 46 9 95 53 102 93 6 28 4 32
-15 32 -14 0 -25 -11 -35 -35 -24 -58 -102 -61 -131 -5 -37 72 -4 136 66 127
31 -4 41 -1 49 13 8 15 4 20 -22 29 -39 14 -46 13 -85 -4z"/>
<path d="M2669 2430 c-37 -36 -33 -61 17 -106 36 -33 45 -71 19 -80 -21 -9
-65 23 -65 46 0 15 -7 20 -26 20 -23 0 -25 -3 -19 -27 9 -40 46 -73 88 -80 31
-5 42 -1 62 17 40 37 34 78 -17 121 -30 26 -39 41 -35 53 10 25 59 17 72 -11
11 -26 44 -37 52 -17 8 22 -25 64 -62 80 -47 19 -52 18 -86 -16z"/>
<path d="M7361 2364 c-23 -19 -31 -34 -31 -59 0 -47 29 -65 102 -65 55 0 58
-1 58 -25 0 -32 -34 -51 -66 -36 -24 11 -54 6 -54 -10 0 -14 43 -39 68 -39 35
0 79 30 92 61 24 57 -21 106 -88 95 -45 -7 -77 10 -67 36 9 23 40 31 66 18 17
-10 24 -9 38 5 15 15 15 17 -3 31 -31 22 -81 17 -115 -12z"/>
<path d="M7072 2343 c-18 -17 -19 -25 -9 -193 5 -96 11 -177 13 -178 1 -2 12
-1 23 3 18 5 21 14 21 59 l0 52 64 31 65 32 34 -38 c29 -32 37 -36 56 -27 12
5 20 13 19 17 -5 13 -249 259 -258 259 -4 0 -17 -8 -28 -17z m138 -164 c0 -6
-91 -51 -95 -47 -1 2 -5 41 -8 88 l-6 85 55 -60 c29 -33 54 -62 54 -66z"/>
<path d="M2876 2329 c-36 -29 -56 -70 -56 -120 0 -33 6 -47 34 -75 29 -29 41
-34 79 -34 55 0 98 28 74 48 -11 10 -21 10 -40 1 -33 -15 -80 2 -93 34 -22 53
20 127 71 127 26 0 75 -39 75 -60 0 -5 12 -10 26 -10 22 0 24 3 18 23 -22 75
-129 113 -188 66z"/>
<path d="M3140 2237 c-35 -18 -70 -74 -70 -114 0 -53 26 -92 76 -114 44 -20
66 -19 112 4 52 25 81 123 53 176 -28 52 -115 76 -171 48z m98 -43 c34 -24 42
-47 31 -87 -18 -65 -81 -87 -126 -45 -32 30 -30 78 3 117 29 34 58 39 92 15z"/>
<path d="M4305 2072 c-3 -3 -5 -13 -5 -22 0 -13 11 -19 41 -23 22 -3 43 -8 46
-11 3 -3 -2 -65 -11 -139 -21 -177 -21 -177 8 -177 26 0 21 -22 55 260 l6 55
53 -3 c47 -3 52 -2 52 16 0 18 -9 22 -57 27 -32 3 -86 10 -121 14 -34 4 -64 5
-67 3z"/>
<path d="M4724 2015 c-9 -23 3 -45 24 -45 11 0 25 7 32 15 16 19 -3 45 -32 45
-10 0 -21 -7 -24 -15z"/>
<path d="M5097 1963 c-4 -3 -7 -17 -7 -30 0 -16 -6 -23 -19 -23 -10 0 -22 -7
-25 -16 -9 -23 -8 -24 19 -24 25 0 25 -1 25 -88 0 -102 12 -122 73 -122 30 0
37 4 37 19 0 13 -9 20 -30 25 l-30 6 0 80 0 80 30 0 c23 0 30 4 30 20 0 16 -7
20 -30 20 -27 0 -30 3 -30 30 0 22 -5 30 -18 30 -10 0 -22 -3 -25 -7z"/>
<path d="M5799 1945 c-35 -19 -45 -46 -23 -62 14 -10 20 -8 36 12 26 33 75 34
87 3 10 -26 3 -32 -50 -42 -58 -10 -89 -40 -89 -86 0 -29 6 -43 22 -54 31 -22
80 -20 112 5 21 17 26 18 26 5 0 -18 8 -20 29 -7 11 7 12 27 6 97 -7 87 -17
122 -39 136 -18 13 -89 8 -117 -7z m111 -137 c0 -49 -71 -88 -99 -54 -17 20
-2 46 33 62 46 20 66 18 66 -8z"/>
<path d="M5615 1933 c-87 -7 -105 -13 -105 -34 0 -18 5 -19 67 -13 l68 7 -26
-34 c-71 -94 -99 -138 -99 -158 0 -24 25 -26 139 -15 52 6 61 10 61 27 0 19
-4 19 -70 13 -38 -3 -70 -3 -70 0 0 3 27 44 61 90 80 111 77 127 -26 117z"/>
<path d="M4540 1883 c0 -21 -3 -75 -7 -120 l-6 -83 27 0 c24 0 26 3 26 43 2
104 30 164 73 153 9 -2 17 0 17 4 0 5 3 15 6 24 8 21 -48 22 -66 1 -7 -8 -16
-15 -21 -15 -5 0 -6 7 -3 15 5 11 -1 15 -20 15 -23 0 -26 -4 -26 -37z"/>
<path d="M4720 1872 c0 -27 -3 -83 -6 -125 l-7 -77 25 0 c24 0 25 3 31 83 4
45 7 101 7 125 0 38 -2 42 -25 42 -23 0 -25 -3 -25 -48z"/>
<path d="M4890 1913 c-31 -12 -50 -37 -50 -68 0 -38 21 -59 75 -77 32 -11 40
-18 40 -38 0 -21 -5 -26 -32 -28 -22 -2 -35 3 -46 18 -9 13 -20 18 -31 14 -22
-9 -20 -27 7 -52 33 -31 105 -31 135 1 45 48 19 106 -56 127 -43 11 -59 34
-41 56 16 19 32 18 60 -5 19 -15 59 -18 59 -4 0 38 -74 73 -120 56z"/>
<path d="M5299 1905 c-42 -23 -59 -58 -59 -121 0 -51 3 -59 35 -91 33 -33 39
-35 86 -31 37 4 58 12 77 31 25 25 25 27 8 40 -16 12 -22 11 -42 -10 -26 -26
-42 -28 -77 -12 -21 9 -47 46 -47 64 0 3 40 5 89 5 50 0 92 4 95 8 10 17 -18
93 -42 112 -29 23 -85 26 -123 5z m100 -52 c12 -14 20 -27 19 -29 -2 -1 -32
-3 -68 -5 -70 -2 -80 9 -38 44 29 25 63 21 87 -10z"/>
</g>
</svg>
